G75*
%MOIN*%
%OFA0B0*%
%FSLAX24Y24*%
%IPPOS*%
%LPD*%
%AMOC8*
5,1,8,0,0,1.08239X$1,22.5*
%
%ADD10C,0.0000*%
%ADD11OC8,0.0630*%
%ADD12C,0.0630*%
%ADD13OC8,0.0480*%
%ADD14C,0.0540*%
%ADD15C,0.0480*%
%ADD16C,0.0591*%
%ADD17OC8,0.0600*%
%ADD18C,0.0100*%
%ADD19C,0.0160*%
%ADD20C,0.0376*%
D10*
X000680Y001000D02*
X000680Y007496D01*
X011113Y007496D01*
X012536Y004750D02*
X012538Y004789D01*
X012544Y004828D01*
X012554Y004866D01*
X012567Y004903D01*
X012584Y004938D01*
X012604Y004972D01*
X012628Y005003D01*
X012655Y005032D01*
X012684Y005058D01*
X012716Y005081D01*
X012750Y005101D01*
X012786Y005117D01*
X012823Y005129D01*
X012862Y005138D01*
X012901Y005143D01*
X012940Y005144D01*
X012979Y005141D01*
X013018Y005134D01*
X013055Y005123D01*
X013092Y005109D01*
X013127Y005091D01*
X013160Y005070D01*
X013191Y005045D01*
X013219Y005018D01*
X013244Y004988D01*
X013266Y004955D01*
X013285Y004921D01*
X013300Y004885D01*
X013312Y004847D01*
X013320Y004809D01*
X013324Y004770D01*
X013324Y004730D01*
X013320Y004691D01*
X013312Y004653D01*
X013300Y004615D01*
X013285Y004579D01*
X013266Y004545D01*
X013244Y004512D01*
X013219Y004482D01*
X013191Y004455D01*
X013160Y004430D01*
X013127Y004409D01*
X013092Y004391D01*
X013055Y004377D01*
X013018Y004366D01*
X012979Y004359D01*
X012940Y004356D01*
X012901Y004357D01*
X012862Y004362D01*
X012823Y004371D01*
X012786Y004383D01*
X012750Y004399D01*
X012716Y004419D01*
X012684Y004442D01*
X012655Y004468D01*
X012628Y004497D01*
X012604Y004528D01*
X012584Y004562D01*
X012567Y004597D01*
X012554Y004634D01*
X012544Y004672D01*
X012538Y004711D01*
X012536Y004750D01*
X015050Y003559D02*
X015048Y003683D01*
X015042Y003806D01*
X015033Y003930D01*
X015019Y004052D01*
X015002Y004175D01*
X014980Y004297D01*
X014955Y004418D01*
X014926Y004538D01*
X014894Y004657D01*
X014857Y004776D01*
X014817Y004893D01*
X014774Y005008D01*
X014726Y005123D01*
X014675Y005235D01*
X014621Y005346D01*
X014563Y005456D01*
X014502Y005563D01*
X014437Y005669D01*
X014369Y005772D01*
X014298Y005873D01*
X014224Y005972D01*
X014147Y006069D01*
X014066Y006163D01*
X013983Y006254D01*
X013897Y006343D01*
X013808Y006429D01*
X013717Y006512D01*
X013623Y006593D01*
X013526Y006670D01*
X013427Y006744D01*
X013326Y006815D01*
X013223Y006883D01*
X013117Y006948D01*
X013010Y007009D01*
X012900Y007067D01*
X012789Y007121D01*
X012677Y007172D01*
X012562Y007220D01*
X012447Y007263D01*
X012330Y007303D01*
X012211Y007340D01*
X012092Y007372D01*
X011972Y007401D01*
X011851Y007426D01*
X011729Y007448D01*
X011606Y007465D01*
X011484Y007479D01*
X011360Y007488D01*
X011237Y007494D01*
X011113Y007496D01*
X015050Y003559D02*
X015050Y001000D01*
X000680Y001000D01*
X001286Y002500D02*
X001288Y002539D01*
X001294Y002578D01*
X001304Y002616D01*
X001317Y002653D01*
X001334Y002688D01*
X001354Y002722D01*
X001378Y002753D01*
X001405Y002782D01*
X001434Y002808D01*
X001466Y002831D01*
X001500Y002851D01*
X001536Y002867D01*
X001573Y002879D01*
X001612Y002888D01*
X001651Y002893D01*
X001690Y002894D01*
X001729Y002891D01*
X001768Y002884D01*
X001805Y002873D01*
X001842Y002859D01*
X001877Y002841D01*
X001910Y002820D01*
X001941Y002795D01*
X001969Y002768D01*
X001994Y002738D01*
X002016Y002705D01*
X002035Y002671D01*
X002050Y002635D01*
X002062Y002597D01*
X002070Y002559D01*
X002074Y002520D01*
X002074Y002480D01*
X002070Y002441D01*
X002062Y002403D01*
X002050Y002365D01*
X002035Y002329D01*
X002016Y002295D01*
X001994Y002262D01*
X001969Y002232D01*
X001941Y002205D01*
X001910Y002180D01*
X001877Y002159D01*
X001842Y002141D01*
X001805Y002127D01*
X001768Y002116D01*
X001729Y002109D01*
X001690Y002106D01*
X001651Y002107D01*
X001612Y002112D01*
X001573Y002121D01*
X001536Y002133D01*
X001500Y002149D01*
X001466Y002169D01*
X001434Y002192D01*
X001405Y002218D01*
X001378Y002247D01*
X001354Y002278D01*
X001334Y002312D01*
X001317Y002347D01*
X001304Y002384D01*
X001294Y002422D01*
X001288Y002461D01*
X001286Y002500D01*
X001286Y006000D02*
X001288Y006039D01*
X001294Y006078D01*
X001304Y006116D01*
X001317Y006153D01*
X001334Y006188D01*
X001354Y006222D01*
X001378Y006253D01*
X001405Y006282D01*
X001434Y006308D01*
X001466Y006331D01*
X001500Y006351D01*
X001536Y006367D01*
X001573Y006379D01*
X001612Y006388D01*
X001651Y006393D01*
X001690Y006394D01*
X001729Y006391D01*
X001768Y006384D01*
X001805Y006373D01*
X001842Y006359D01*
X001877Y006341D01*
X001910Y006320D01*
X001941Y006295D01*
X001969Y006268D01*
X001994Y006238D01*
X002016Y006205D01*
X002035Y006171D01*
X002050Y006135D01*
X002062Y006097D01*
X002070Y006059D01*
X002074Y006020D01*
X002074Y005980D01*
X002070Y005941D01*
X002062Y005903D01*
X002050Y005865D01*
X002035Y005829D01*
X002016Y005795D01*
X001994Y005762D01*
X001969Y005732D01*
X001941Y005705D01*
X001910Y005680D01*
X001877Y005659D01*
X001842Y005641D01*
X001805Y005627D01*
X001768Y005616D01*
X001729Y005609D01*
X001690Y005606D01*
X001651Y005607D01*
X001612Y005612D01*
X001573Y005621D01*
X001536Y005633D01*
X001500Y005649D01*
X001466Y005669D01*
X001434Y005692D01*
X001405Y005718D01*
X001378Y005747D01*
X001354Y005778D01*
X001334Y005812D01*
X001317Y005847D01*
X001304Y005884D01*
X001294Y005922D01*
X001288Y005961D01*
X001286Y006000D01*
D11*
X011680Y003000D03*
D12*
X010680Y003000D03*
D13*
X010680Y005500D03*
X011680Y005500D03*
D14*
X004180Y002770D02*
X004180Y002230D01*
X003180Y002230D02*
X003180Y002770D01*
D15*
X005940Y002500D02*
X006420Y002500D01*
X006420Y003500D02*
X005940Y003500D01*
X005940Y004500D02*
X006420Y004500D01*
X006420Y005500D02*
X005940Y005500D01*
X008940Y005500D02*
X009420Y005500D01*
X009420Y004500D02*
X008940Y004500D01*
X008940Y003500D02*
X009420Y003500D01*
X009420Y002500D02*
X008940Y002500D01*
D16*
X004664Y004516D03*
X002696Y004516D03*
X003680Y006484D03*
D17*
X012930Y003000D03*
X013930Y003000D03*
X013930Y002000D03*
X012930Y002000D03*
D18*
X010680Y005500D02*
X010490Y005500D01*
D19*
X010300Y005438D02*
X009800Y005438D01*
X009800Y005424D02*
X009800Y005576D01*
X009742Y005715D01*
X009635Y005822D01*
X009496Y005880D01*
X008864Y005880D01*
X008725Y005822D01*
X008618Y005715D01*
X008560Y005576D01*
X008560Y005424D01*
X008618Y005285D01*
X008725Y005178D01*
X008864Y005120D01*
X009496Y005120D01*
X009635Y005178D01*
X009742Y005285D01*
X009800Y005424D01*
X009737Y005280D02*
X010363Y005280D01*
X010300Y005343D02*
X010523Y005120D01*
X010837Y005120D01*
X011060Y005343D01*
X011060Y005657D01*
X010837Y005880D01*
X010523Y005880D01*
X010300Y005657D01*
X010300Y005343D01*
X010300Y005597D02*
X009791Y005597D01*
X009702Y005755D02*
X010398Y005755D01*
X010962Y005755D02*
X011341Y005755D01*
X011260Y005674D02*
X011260Y005500D01*
X011680Y005500D01*
X012100Y005500D01*
X012100Y005674D01*
X011854Y005920D01*
X011680Y005920D01*
X011680Y005500D01*
X011680Y005500D01*
X011680Y005500D01*
X012100Y005500D01*
X012100Y005326D01*
X011854Y005080D01*
X011680Y005080D01*
X011680Y005500D01*
X011680Y005500D01*
X011680Y005500D01*
X011680Y005920D01*
X011506Y005920D01*
X011260Y005674D01*
X011260Y005597D02*
X011060Y005597D01*
X011260Y005500D02*
X011260Y005326D01*
X011506Y005080D01*
X011680Y005080D01*
X011680Y005500D01*
X011260Y005500D01*
X011260Y005438D02*
X011060Y005438D01*
X010997Y005280D02*
X011307Y005280D01*
X011465Y005121D02*
X010838Y005121D01*
X010522Y005121D02*
X009498Y005121D01*
X009496Y004880D02*
X008864Y004880D01*
X008725Y004822D01*
X008618Y004715D01*
X008560Y004576D01*
X008560Y004424D01*
X008618Y004285D01*
X008725Y004178D01*
X008864Y004120D01*
X009496Y004120D01*
X009635Y004178D01*
X009742Y004285D01*
X009800Y004424D01*
X009800Y004576D01*
X009742Y004715D01*
X009635Y004822D01*
X009496Y004880D01*
X009653Y004804D02*
X012306Y004804D01*
X012306Y004874D02*
X012306Y004626D01*
X012401Y004397D01*
X012577Y004221D01*
X012806Y004126D01*
X013054Y004126D01*
X013283Y004221D01*
X013459Y004397D01*
X013554Y004626D01*
X013554Y004874D01*
X013459Y005103D01*
X013283Y005279D01*
X013054Y005374D01*
X012806Y005374D01*
X012577Y005279D01*
X012401Y005103D01*
X012306Y004874D01*
X012343Y004963D02*
X004827Y004963D01*
X004847Y004956D02*
X004776Y004979D01*
X004702Y004991D01*
X004683Y004991D01*
X004683Y004534D01*
X005140Y004534D01*
X005140Y004553D01*
X005128Y004627D01*
X005105Y004698D01*
X005071Y004765D01*
X005027Y004825D01*
X004974Y004878D01*
X004913Y004922D01*
X004847Y004956D01*
X004683Y004963D02*
X004646Y004963D01*
X004646Y004991D02*
X004627Y004991D01*
X004553Y004979D01*
X004482Y004956D01*
X004415Y004922D01*
X004355Y004878D01*
X004302Y004825D01*
X004258Y004765D01*
X004224Y004698D01*
X004201Y004627D01*
X004189Y004553D01*
X004189Y004534D01*
X004646Y004534D01*
X004646Y004497D01*
X004683Y004497D01*
X004683Y004534D01*
X004646Y004534D01*
X004646Y004991D01*
X004501Y004963D02*
X000910Y004963D01*
X000910Y005121D02*
X005862Y005121D01*
X005864Y005120D02*
X006496Y005120D01*
X006635Y005178D01*
X006742Y005285D01*
X006800Y005424D01*
X006800Y005576D01*
X006742Y005715D01*
X006635Y005822D01*
X006496Y005880D01*
X005864Y005880D01*
X005725Y005822D01*
X005618Y005715D01*
X005560Y005576D01*
X005560Y005424D01*
X005618Y005285D01*
X005725Y005178D01*
X005864Y005120D01*
X005623Y005280D02*
X000910Y005280D01*
X000910Y005438D02*
X001407Y005438D01*
X001327Y005471D02*
X001556Y005376D01*
X001804Y005376D01*
X002033Y005471D01*
X002209Y005647D01*
X002304Y005876D01*
X002304Y006124D01*
X002209Y006353D01*
X002033Y006529D01*
X001804Y006624D01*
X001556Y006624D01*
X001327Y006529D01*
X001151Y006353D01*
X001056Y006124D01*
X001056Y005876D01*
X001151Y005647D01*
X001327Y005471D01*
X001201Y005597D02*
X000910Y005597D01*
X000910Y005755D02*
X001106Y005755D01*
X001056Y005914D02*
X000910Y005914D01*
X000910Y006072D02*
X001056Y006072D01*
X001100Y006231D02*
X000910Y006231D01*
X000910Y006389D02*
X001187Y006389D01*
X001372Y006548D02*
X000910Y006548D01*
X000910Y006706D02*
X003301Y006706D01*
X003311Y006731D02*
X003245Y006571D01*
X003245Y006398D01*
X003311Y006238D01*
X003433Y006115D01*
X003593Y006049D01*
X003767Y006049D01*
X003927Y006115D01*
X004049Y006238D01*
X004115Y006398D01*
X004115Y006571D01*
X004049Y006731D01*
X003927Y006853D01*
X003767Y006920D01*
X003593Y006920D01*
X003433Y006853D01*
X003311Y006731D01*
X003461Y006865D02*
X000910Y006865D01*
X000910Y007023D02*
X012393Y007023D01*
X012680Y006919D02*
X012073Y007140D01*
X011436Y007252D01*
X011113Y007266D01*
X000910Y007266D01*
X000910Y001230D01*
X014820Y001230D01*
X014820Y003559D01*
X014806Y003882D01*
X014694Y004518D01*
X014473Y005126D01*
X014150Y005685D01*
X013734Y006180D01*
X013239Y006596D01*
X012680Y006919D01*
X012774Y006865D02*
X003899Y006865D01*
X004059Y006706D02*
X013048Y006706D01*
X013297Y006548D02*
X004115Y006548D01*
X004112Y006389D02*
X013486Y006389D01*
X013674Y006231D02*
X004042Y006231D01*
X003822Y006072D02*
X013825Y006072D01*
X013958Y005914D02*
X011860Y005914D01*
X011680Y005914D02*
X011680Y005914D01*
X011500Y005914D02*
X002304Y005914D01*
X002304Y006072D02*
X003538Y006072D01*
X003318Y006231D02*
X002260Y006231D01*
X002173Y006389D02*
X003248Y006389D01*
X003245Y006548D02*
X001988Y006548D01*
X000910Y007182D02*
X011836Y007182D01*
X011680Y005755D02*
X011680Y005755D01*
X011680Y005597D02*
X011680Y005597D01*
X011680Y005438D02*
X011680Y005438D01*
X011680Y005280D02*
X011680Y005280D01*
X011680Y005121D02*
X011680Y005121D01*
X011895Y005121D02*
X012419Y005121D01*
X012579Y005280D02*
X012053Y005280D01*
X012100Y005438D02*
X014292Y005438D01*
X014201Y005597D02*
X012100Y005597D01*
X012019Y005755D02*
X014091Y005755D01*
X014384Y005280D02*
X013281Y005280D01*
X013441Y005121D02*
X014474Y005121D01*
X014532Y004963D02*
X013517Y004963D01*
X013554Y004804D02*
X014590Y004804D01*
X014648Y004646D02*
X013554Y004646D01*
X013496Y004487D02*
X014699Y004487D01*
X014727Y004329D02*
X013391Y004329D01*
X013160Y004170D02*
X014755Y004170D01*
X014783Y004012D02*
X000910Y004012D01*
X000910Y004170D02*
X002426Y004170D01*
X002449Y004147D02*
X002609Y004080D01*
X002782Y004080D01*
X002942Y004147D01*
X003065Y004269D01*
X003131Y004429D01*
X003131Y004602D01*
X003065Y004762D01*
X002942Y004885D01*
X002782Y004951D01*
X002609Y004951D01*
X002449Y004885D01*
X002327Y004762D01*
X002260Y004602D01*
X002260Y004429D01*
X002327Y004269D01*
X002449Y004147D01*
X002302Y004329D02*
X000910Y004329D01*
X000910Y004487D02*
X002260Y004487D01*
X002278Y004646D02*
X000910Y004646D01*
X000910Y004804D02*
X002368Y004804D01*
X003023Y004804D02*
X004286Y004804D01*
X004207Y004646D02*
X003113Y004646D01*
X003131Y004487D02*
X004189Y004487D01*
X004189Y004478D02*
X004201Y004404D01*
X004224Y004333D01*
X004258Y004267D01*
X004302Y004206D01*
X004355Y004153D01*
X004415Y004109D01*
X004482Y004075D01*
X004553Y004052D01*
X004627Y004040D01*
X004646Y004040D01*
X004646Y004497D01*
X004189Y004497D01*
X004189Y004478D01*
X004226Y004329D02*
X003089Y004329D01*
X002966Y004170D02*
X004338Y004170D01*
X004646Y004170D02*
X004683Y004170D01*
X004683Y004040D02*
X004702Y004040D01*
X004776Y004052D01*
X004847Y004075D01*
X004913Y004109D01*
X004974Y004153D01*
X005027Y004206D01*
X005071Y004267D01*
X005105Y004333D01*
X005128Y004404D01*
X005140Y004478D01*
X005140Y004497D01*
X004683Y004497D01*
X004683Y004040D01*
X004991Y004170D02*
X005744Y004170D01*
X005725Y004178D02*
X005864Y004120D01*
X006496Y004120D01*
X006635Y004178D01*
X006742Y004285D01*
X006800Y004424D01*
X006800Y004576D01*
X006742Y004715D01*
X006635Y004822D01*
X006496Y004880D01*
X005864Y004880D01*
X005725Y004822D01*
X005618Y004715D01*
X005560Y004576D01*
X005560Y004424D01*
X005618Y004285D01*
X005725Y004178D01*
X005600Y004329D02*
X005102Y004329D01*
X005140Y004487D02*
X005560Y004487D01*
X005589Y004646D02*
X005122Y004646D01*
X005042Y004804D02*
X005707Y004804D01*
X006498Y005121D02*
X008862Y005121D01*
X008623Y005280D02*
X006737Y005280D01*
X006800Y005438D02*
X008560Y005438D01*
X008569Y005597D02*
X006791Y005597D01*
X006702Y005755D02*
X008658Y005755D01*
X008707Y004804D02*
X006653Y004804D01*
X006771Y004646D02*
X008589Y004646D01*
X008560Y004487D02*
X006800Y004487D01*
X006760Y004329D02*
X008600Y004329D01*
X008744Y004170D02*
X006616Y004170D01*
X006518Y003910D02*
X006453Y003920D01*
X006180Y003920D01*
X006180Y003500D01*
X006180Y003500D01*
X006840Y003500D01*
X006840Y003533D01*
X006830Y003598D01*
X006809Y003661D01*
X006779Y003720D01*
X006740Y003774D01*
X006694Y003820D01*
X006640Y003859D01*
X006581Y003889D01*
X006518Y003910D01*
X006649Y003853D02*
X008711Y003853D01*
X008720Y003859D02*
X008666Y003820D01*
X008620Y003774D01*
X008581Y003720D01*
X008551Y003661D01*
X008530Y003598D01*
X008520Y003533D01*
X008520Y003500D01*
X009180Y003500D01*
X009180Y003500D01*
X009180Y003920D01*
X009453Y003920D01*
X009518Y003910D01*
X009581Y003889D01*
X009640Y003859D01*
X009694Y003820D01*
X009740Y003774D01*
X009779Y003720D01*
X009809Y003661D01*
X009830Y003598D01*
X009840Y003533D01*
X009840Y003500D01*
X009180Y003500D01*
X009180Y003500D01*
X009180Y003080D01*
X009453Y003080D01*
X009518Y003090D01*
X009581Y003111D01*
X009640Y003141D01*
X009694Y003180D01*
X009740Y003226D01*
X009779Y003280D01*
X009809Y003339D01*
X009830Y003402D01*
X009840Y003467D01*
X009840Y003500D01*
X009180Y003500D01*
X009180Y003500D01*
X009180Y003500D01*
X009180Y003920D01*
X008907Y003920D01*
X008842Y003910D01*
X008779Y003889D01*
X008720Y003859D01*
X008568Y003695D02*
X006792Y003695D01*
X006840Y003536D02*
X008520Y003536D01*
X008520Y003500D02*
X008520Y003467D01*
X008530Y003402D01*
X008551Y003339D01*
X008581Y003280D01*
X008620Y003226D01*
X008666Y003180D01*
X008720Y003141D01*
X008779Y003111D01*
X008842Y003090D01*
X008907Y003080D01*
X009180Y003080D01*
X009180Y003500D01*
X008520Y003500D01*
X008538Y003378D02*
X006822Y003378D01*
X006830Y003402D02*
X006840Y003467D01*
X006840Y003500D01*
X006180Y003500D01*
X006180Y003500D01*
X006180Y003080D01*
X006453Y003080D01*
X006518Y003090D01*
X006581Y003111D01*
X006640Y003141D01*
X006694Y003180D01*
X006740Y003226D01*
X006779Y003280D01*
X006809Y003339D01*
X006830Y003402D01*
X006733Y003219D02*
X008627Y003219D01*
X009180Y003219D02*
X009180Y003219D01*
X009180Y003378D02*
X009180Y003378D01*
X009180Y003536D02*
X009180Y003536D01*
X009180Y003695D02*
X009180Y003695D01*
X009180Y003853D02*
X009180Y003853D01*
X009649Y003853D02*
X014807Y003853D01*
X014814Y003695D02*
X009792Y003695D01*
X009840Y003536D02*
X014820Y003536D01*
X014820Y003378D02*
X014231Y003378D01*
X014129Y003480D02*
X013950Y003480D01*
X013950Y003020D01*
X014410Y003020D01*
X014410Y003199D01*
X014129Y003480D01*
X013950Y003378D02*
X013910Y003378D01*
X013910Y003480D02*
X013731Y003480D01*
X013450Y003199D01*
X013450Y003020D01*
X013910Y003020D01*
X013910Y003480D01*
X013629Y003378D02*
X013175Y003378D01*
X013112Y003440D02*
X012748Y003440D01*
X012490Y003182D01*
X012490Y002818D01*
X012748Y002560D01*
X013112Y002560D01*
X013370Y002818D01*
X013370Y003182D01*
X013112Y003440D01*
X012685Y003378D02*
X012003Y003378D01*
X011885Y003495D02*
X011680Y003495D01*
X011680Y003000D01*
X012175Y003000D01*
X012175Y003205D01*
X011885Y003495D01*
X011680Y003495D02*
X011475Y003495D01*
X011185Y003205D01*
X011185Y003000D01*
X011680Y003000D01*
X011680Y003000D01*
X011680Y003000D01*
X012175Y003000D01*
X012175Y002795D01*
X011885Y002505D01*
X011680Y002505D01*
X011680Y003000D01*
X011680Y003000D01*
X011680Y003000D01*
X011680Y003495D01*
X011680Y003378D02*
X011680Y003378D01*
X011680Y003219D02*
X011680Y003219D01*
X011680Y003061D02*
X011680Y003061D01*
X011680Y003000D02*
X011185Y003000D01*
X011185Y002795D01*
X011475Y002505D01*
X011680Y002505D01*
X011680Y003000D01*
X011680Y002902D02*
X011680Y002902D01*
X011680Y002744D02*
X011680Y002744D01*
X011680Y002585D02*
X011680Y002585D01*
X011965Y002585D02*
X012723Y002585D01*
X012748Y002440D02*
X012490Y002182D01*
X012490Y001818D01*
X012748Y001560D01*
X013112Y001560D01*
X013370Y001818D01*
X013370Y002182D01*
X013112Y002440D01*
X012748Y002440D01*
X012734Y002427D02*
X009800Y002427D01*
X009800Y002424D02*
X009800Y002576D01*
X009742Y002715D01*
X009635Y002822D01*
X009496Y002880D01*
X008864Y002880D01*
X008725Y002822D01*
X008618Y002715D01*
X008560Y002576D01*
X008560Y002424D01*
X008618Y002285D01*
X008725Y002178D01*
X008864Y002120D01*
X009496Y002120D01*
X009635Y002178D01*
X009742Y002285D01*
X009800Y002424D01*
X009796Y002585D02*
X010493Y002585D01*
X010422Y002614D02*
X010589Y002545D01*
X010771Y002545D01*
X010938Y002614D01*
X011066Y002742D01*
X011135Y002909D01*
X011135Y003091D01*
X011066Y003258D01*
X010938Y003386D01*
X010771Y003455D01*
X010589Y003455D01*
X010422Y003386D01*
X010294Y003258D01*
X010225Y003091D01*
X010225Y002909D01*
X010294Y002742D01*
X010422Y002614D01*
X010294Y002744D02*
X009714Y002744D01*
X010228Y002902D02*
X004569Y002902D01*
X004590Y002852D02*
X004528Y003002D01*
X004412Y003118D01*
X004262Y003180D01*
X004098Y003180D01*
X003948Y003118D01*
X003832Y003002D01*
X003770Y002852D01*
X003770Y002148D01*
X003832Y001998D01*
X003948Y001882D01*
X004098Y001820D01*
X004262Y001820D01*
X004412Y001882D01*
X004528Y001998D01*
X004590Y002148D01*
X004590Y002852D01*
X004590Y002744D02*
X005646Y002744D01*
X005618Y002715D02*
X005560Y002576D01*
X005560Y002424D01*
X005618Y002285D01*
X005725Y002178D01*
X005864Y002120D01*
X006496Y002120D01*
X006635Y002178D01*
X006742Y002285D01*
X006800Y002424D01*
X006800Y002576D01*
X006742Y002715D01*
X006635Y002822D01*
X006496Y002880D01*
X005864Y002880D01*
X005725Y002822D01*
X005618Y002715D01*
X005564Y002585D02*
X004590Y002585D01*
X004590Y002427D02*
X005560Y002427D01*
X005635Y002268D02*
X004590Y002268D01*
X004574Y002110D02*
X012490Y002110D01*
X012490Y001951D02*
X004481Y001951D01*
X003879Y001951D02*
X003481Y001951D01*
X003528Y001998D02*
X003590Y002148D01*
X003590Y002852D01*
X003528Y003002D01*
X003412Y003118D01*
X003262Y003180D01*
X003098Y003180D01*
X002948Y003118D01*
X002832Y003002D01*
X002770Y002852D01*
X002770Y002148D01*
X002832Y001998D01*
X002948Y001882D01*
X003098Y001820D01*
X003262Y001820D01*
X003412Y001882D01*
X003528Y001998D01*
X003574Y002110D02*
X003786Y002110D01*
X003770Y002268D02*
X003590Y002268D01*
X003590Y002427D02*
X003770Y002427D01*
X003770Y002585D02*
X003590Y002585D01*
X003590Y002744D02*
X003770Y002744D01*
X003791Y002902D02*
X003569Y002902D01*
X003469Y003061D02*
X003891Y003061D01*
X004469Y003061D02*
X010225Y003061D01*
X010278Y003219D02*
X009733Y003219D01*
X009822Y003378D02*
X010414Y003378D01*
X010946Y003378D02*
X011357Y003378D01*
X011199Y003219D02*
X011082Y003219D01*
X011135Y003061D02*
X011185Y003061D01*
X011185Y002902D02*
X011132Y002902D01*
X011066Y002744D02*
X011236Y002744D01*
X011395Y002585D02*
X010867Y002585D01*
X009725Y002268D02*
X012576Y002268D01*
X013126Y002427D02*
X013678Y002427D01*
X013731Y002480D02*
X013450Y002199D01*
X013450Y002020D01*
X013910Y002020D01*
X013910Y002480D01*
X013731Y002480D01*
X013731Y002520D02*
X013910Y002520D01*
X013910Y002980D01*
X013950Y002980D01*
X013950Y003020D01*
X013910Y003020D01*
X013910Y002980D01*
X013450Y002980D01*
X013450Y002801D01*
X013731Y002520D01*
X013666Y002585D02*
X013137Y002585D01*
X013296Y002744D02*
X013508Y002744D01*
X013450Y002902D02*
X013370Y002902D01*
X013370Y003061D02*
X013450Y003061D01*
X013470Y003219D02*
X013333Y003219D01*
X013910Y003219D02*
X013950Y003219D01*
X013950Y003061D02*
X013910Y003061D01*
X013950Y002980D02*
X014410Y002980D01*
X014410Y002801D01*
X014129Y002520D01*
X013950Y002520D01*
X013950Y002980D01*
X013950Y002902D02*
X013910Y002902D01*
X013910Y002744D02*
X013950Y002744D01*
X013950Y002585D02*
X013910Y002585D01*
X013950Y002480D02*
X014129Y002480D01*
X014410Y002199D01*
X014410Y002020D01*
X013950Y002020D01*
X013950Y001980D01*
X014410Y001980D01*
X014410Y001801D01*
X014129Y001520D01*
X013950Y001520D01*
X013950Y001980D01*
X013910Y001980D01*
X013910Y001520D01*
X013731Y001520D01*
X013450Y001801D01*
X013450Y001980D01*
X013910Y001980D01*
X013910Y002020D01*
X013950Y002020D01*
X013950Y002480D01*
X013950Y002427D02*
X013910Y002427D01*
X014182Y002427D02*
X014820Y002427D01*
X014820Y002585D02*
X014194Y002585D01*
X014352Y002744D02*
X014820Y002744D01*
X014820Y002902D02*
X014410Y002902D01*
X014410Y003061D02*
X014820Y003061D01*
X014820Y003219D02*
X014390Y003219D01*
X012527Y003219D02*
X012161Y003219D01*
X012175Y003061D02*
X012490Y003061D01*
X012490Y002902D02*
X012175Y002902D01*
X012124Y002744D02*
X012564Y002744D01*
X013284Y002268D02*
X013519Y002268D01*
X013450Y002110D02*
X013370Y002110D01*
X013370Y001951D02*
X013450Y001951D01*
X013459Y001793D02*
X013345Y001793D01*
X013186Y001634D02*
X013617Y001634D01*
X013910Y001634D02*
X013950Y001634D01*
X013950Y001793D02*
X013910Y001793D01*
X013910Y001951D02*
X013950Y001951D01*
X013950Y002110D02*
X013910Y002110D01*
X013910Y002268D02*
X013950Y002268D01*
X014341Y002268D02*
X014820Y002268D01*
X014820Y002110D02*
X014410Y002110D01*
X014410Y001951D02*
X014820Y001951D01*
X014820Y001793D02*
X014401Y001793D01*
X014243Y001634D02*
X014820Y001634D01*
X014820Y001476D02*
X000910Y001476D01*
X000910Y001634D02*
X012674Y001634D01*
X012515Y001793D02*
X000910Y001793D01*
X000910Y001951D02*
X001376Y001951D01*
X001327Y001971D02*
X001556Y001876D01*
X001804Y001876D01*
X002033Y001971D01*
X002209Y002147D01*
X002304Y002376D01*
X002304Y002624D01*
X002209Y002853D01*
X002033Y003029D01*
X001804Y003124D01*
X001556Y003124D01*
X001327Y003029D01*
X001151Y002853D01*
X001056Y002624D01*
X001056Y002376D01*
X001151Y002147D01*
X001327Y001971D01*
X001188Y002110D02*
X000910Y002110D01*
X000910Y002268D02*
X001101Y002268D01*
X001056Y002427D02*
X000910Y002427D01*
X000910Y002585D02*
X001056Y002585D01*
X001106Y002744D02*
X000910Y002744D01*
X000910Y002902D02*
X001200Y002902D01*
X001403Y003061D02*
X000910Y003061D01*
X000910Y003219D02*
X005627Y003219D01*
X005620Y003226D02*
X005666Y003180D01*
X005720Y003141D01*
X005779Y003111D01*
X005842Y003090D01*
X005907Y003080D01*
X006180Y003080D01*
X006180Y003500D01*
X006180Y003500D01*
X006180Y003500D01*
X005520Y003500D01*
X005520Y003533D01*
X005530Y003598D01*
X005551Y003661D01*
X005581Y003720D01*
X005620Y003774D01*
X005666Y003820D01*
X005720Y003859D01*
X005779Y003889D01*
X005842Y003910D01*
X005907Y003920D01*
X006180Y003920D01*
X006180Y003500D01*
X005520Y003500D01*
X005520Y003467D01*
X005530Y003402D01*
X005551Y003339D01*
X005581Y003280D01*
X005620Y003226D01*
X005538Y003378D02*
X000910Y003378D01*
X000910Y003536D02*
X005520Y003536D01*
X005568Y003695D02*
X000910Y003695D01*
X000910Y003853D02*
X005711Y003853D01*
X006180Y003853D02*
X006180Y003853D01*
X006180Y003695D02*
X006180Y003695D01*
X006180Y003536D02*
X006180Y003536D01*
X006180Y003378D02*
X006180Y003378D01*
X006180Y003219D02*
X006180Y003219D01*
X006714Y002744D02*
X008646Y002744D01*
X008564Y002585D02*
X006796Y002585D01*
X006800Y002427D02*
X008560Y002427D01*
X008635Y002268D02*
X006725Y002268D01*
X002879Y001951D02*
X001984Y001951D01*
X002172Y002110D02*
X002786Y002110D01*
X002770Y002268D02*
X002259Y002268D01*
X002304Y002427D02*
X002770Y002427D01*
X002770Y002585D02*
X002304Y002585D01*
X002254Y002744D02*
X002770Y002744D01*
X002791Y002902D02*
X002160Y002902D01*
X001957Y003061D02*
X002891Y003061D01*
X004646Y004329D02*
X004683Y004329D01*
X004683Y004487D02*
X004646Y004487D01*
X004646Y004646D02*
X004683Y004646D01*
X004683Y004804D02*
X004646Y004804D01*
X005560Y005438D02*
X001953Y005438D01*
X002159Y005597D02*
X005569Y005597D01*
X005658Y005755D02*
X002254Y005755D01*
X009616Y004170D02*
X012700Y004170D01*
X012469Y004329D02*
X009760Y004329D01*
X009800Y004487D02*
X012364Y004487D01*
X012306Y004646D02*
X009771Y004646D01*
X014820Y001317D02*
X000910Y001317D01*
D20*
X001680Y004000D03*
X010180Y004500D03*
X012680Y006000D03*
M02*
