%
M48
M72
T01C0.0236
T02C0.0320
T03C0.0360
T04C0.0394
T05C0.0400
T06C0.0787
%
T01
X10180Y4500
X12680Y6000
X1680Y4000
T02
X10680Y5500
X11680Y5500
X9180Y5500
X9180Y4500
X9180Y3500
X10680Y3000
X11680Y3000
X9180Y2500
X6180Y2500
X6180Y3500
X6180Y4500
X6180Y5500
T03
X3180Y2500
X4180Y2500
T04
X3680Y6484
X2696Y4516
X4664Y4516
T05
X12930Y3000
X13930Y3000
X13930Y2000
X12930Y2000
T06
X12930Y4750
X1680Y2500
X1680Y6000
M30
