G75*
%MOIN*%
%OFA0B0*%
%FSLAX24Y24*%
%IPPOS*%
%LPD*%
%AMOC8*
5,1,8,0,0,1.08239X$1,22.5*
%
%ADD10C,0.0000*%
%ADD11C,0.0040*%
%ADD12C,0.0030*%
%ADD13C,0.0060*%
%ADD14C,0.0050*%
%ADD15C,0.0120*%
D10*
X000680Y001000D02*
X000680Y007496D01*
X011113Y007496D01*
X012536Y004750D02*
X012538Y004789D01*
X012544Y004828D01*
X012554Y004866D01*
X012567Y004903D01*
X012584Y004938D01*
X012604Y004972D01*
X012628Y005003D01*
X012655Y005032D01*
X012684Y005058D01*
X012716Y005081D01*
X012750Y005101D01*
X012786Y005117D01*
X012823Y005129D01*
X012862Y005138D01*
X012901Y005143D01*
X012940Y005144D01*
X012979Y005141D01*
X013018Y005134D01*
X013055Y005123D01*
X013092Y005109D01*
X013127Y005091D01*
X013160Y005070D01*
X013191Y005045D01*
X013219Y005018D01*
X013244Y004988D01*
X013266Y004955D01*
X013285Y004921D01*
X013300Y004885D01*
X013312Y004847D01*
X013320Y004809D01*
X013324Y004770D01*
X013324Y004730D01*
X013320Y004691D01*
X013312Y004653D01*
X013300Y004615D01*
X013285Y004579D01*
X013266Y004545D01*
X013244Y004512D01*
X013219Y004482D01*
X013191Y004455D01*
X013160Y004430D01*
X013127Y004409D01*
X013092Y004391D01*
X013055Y004377D01*
X013018Y004366D01*
X012979Y004359D01*
X012940Y004356D01*
X012901Y004357D01*
X012862Y004362D01*
X012823Y004371D01*
X012786Y004383D01*
X012750Y004399D01*
X012716Y004419D01*
X012684Y004442D01*
X012655Y004468D01*
X012628Y004497D01*
X012604Y004528D01*
X012584Y004562D01*
X012567Y004597D01*
X012554Y004634D01*
X012544Y004672D01*
X012538Y004711D01*
X012536Y004750D01*
X015050Y003559D02*
X015048Y003683D01*
X015042Y003806D01*
X015033Y003930D01*
X015019Y004052D01*
X015002Y004175D01*
X014980Y004297D01*
X014955Y004418D01*
X014926Y004538D01*
X014894Y004657D01*
X014857Y004776D01*
X014817Y004893D01*
X014774Y005008D01*
X014726Y005123D01*
X014675Y005235D01*
X014621Y005346D01*
X014563Y005456D01*
X014502Y005563D01*
X014437Y005669D01*
X014369Y005772D01*
X014298Y005873D01*
X014224Y005972D01*
X014147Y006069D01*
X014066Y006163D01*
X013983Y006254D01*
X013897Y006343D01*
X013808Y006429D01*
X013717Y006512D01*
X013623Y006593D01*
X013526Y006670D01*
X013427Y006744D01*
X013326Y006815D01*
X013223Y006883D01*
X013117Y006948D01*
X013010Y007009D01*
X012900Y007067D01*
X012789Y007121D01*
X012677Y007172D01*
X012562Y007220D01*
X012447Y007263D01*
X012330Y007303D01*
X012211Y007340D01*
X012092Y007372D01*
X011972Y007401D01*
X011851Y007426D01*
X011729Y007448D01*
X011606Y007465D01*
X011484Y007479D01*
X011360Y007488D01*
X011237Y007494D01*
X011113Y007496D01*
X015050Y003559D02*
X015050Y001000D01*
X000680Y001000D01*
X001286Y002500D02*
X001288Y002539D01*
X001294Y002578D01*
X001304Y002616D01*
X001317Y002653D01*
X001334Y002688D01*
X001354Y002722D01*
X001378Y002753D01*
X001405Y002782D01*
X001434Y002808D01*
X001466Y002831D01*
X001500Y002851D01*
X001536Y002867D01*
X001573Y002879D01*
X001612Y002888D01*
X001651Y002893D01*
X001690Y002894D01*
X001729Y002891D01*
X001768Y002884D01*
X001805Y002873D01*
X001842Y002859D01*
X001877Y002841D01*
X001910Y002820D01*
X001941Y002795D01*
X001969Y002768D01*
X001994Y002738D01*
X002016Y002705D01*
X002035Y002671D01*
X002050Y002635D01*
X002062Y002597D01*
X002070Y002559D01*
X002074Y002520D01*
X002074Y002480D01*
X002070Y002441D01*
X002062Y002403D01*
X002050Y002365D01*
X002035Y002329D01*
X002016Y002295D01*
X001994Y002262D01*
X001969Y002232D01*
X001941Y002205D01*
X001910Y002180D01*
X001877Y002159D01*
X001842Y002141D01*
X001805Y002127D01*
X001768Y002116D01*
X001729Y002109D01*
X001690Y002106D01*
X001651Y002107D01*
X001612Y002112D01*
X001573Y002121D01*
X001536Y002133D01*
X001500Y002149D01*
X001466Y002169D01*
X001434Y002192D01*
X001405Y002218D01*
X001378Y002247D01*
X001354Y002278D01*
X001334Y002312D01*
X001317Y002347D01*
X001304Y002384D01*
X001294Y002422D01*
X001288Y002461D01*
X001286Y002500D01*
X001286Y006000D02*
X001288Y006039D01*
X001294Y006078D01*
X001304Y006116D01*
X001317Y006153D01*
X001334Y006188D01*
X001354Y006222D01*
X001378Y006253D01*
X001405Y006282D01*
X001434Y006308D01*
X001466Y006331D01*
X001500Y006351D01*
X001536Y006367D01*
X001573Y006379D01*
X001612Y006388D01*
X001651Y006393D01*
X001690Y006394D01*
X001729Y006391D01*
X001768Y006384D01*
X001805Y006373D01*
X001842Y006359D01*
X001877Y006341D01*
X001910Y006320D01*
X001941Y006295D01*
X001969Y006268D01*
X001994Y006238D01*
X002016Y006205D01*
X002035Y006171D01*
X002050Y006135D01*
X002062Y006097D01*
X002070Y006059D01*
X002074Y006020D01*
X002074Y005980D01*
X002070Y005941D01*
X002062Y005903D01*
X002050Y005865D01*
X002035Y005829D01*
X002016Y005795D01*
X001994Y005762D01*
X001969Y005732D01*
X001941Y005705D01*
X001910Y005680D01*
X001877Y005659D01*
X001842Y005641D01*
X001805Y005627D01*
X001768Y005616D01*
X001729Y005609D01*
X001690Y005606D01*
X001651Y005607D01*
X001612Y005612D01*
X001573Y005621D01*
X001536Y005633D01*
X001500Y005649D01*
X001466Y005669D01*
X001434Y005692D01*
X001405Y005718D01*
X001378Y005747D01*
X001354Y005778D01*
X001334Y005812D01*
X001317Y005847D01*
X001304Y005884D01*
X001294Y005922D01*
X001288Y005961D01*
X001286Y006000D01*
D11*
X005100Y006597D02*
X005177Y006520D01*
X005330Y006520D01*
X005407Y006597D01*
X005407Y006673D01*
X005330Y006750D01*
X005253Y006750D01*
X005330Y006750D02*
X005407Y006827D01*
X005407Y006904D01*
X005330Y006980D01*
X005177Y006980D01*
X005100Y006904D01*
X005560Y006980D02*
X005560Y006673D01*
X005714Y006520D01*
X005867Y006673D01*
X005867Y006980D01*
X006021Y006904D02*
X006098Y006980D01*
X006251Y006980D01*
X006328Y006904D01*
X006328Y006827D01*
X006251Y006750D01*
X006328Y006673D01*
X006328Y006597D01*
X006251Y006520D01*
X006098Y006520D01*
X006021Y006597D01*
X006174Y006750D02*
X006251Y006750D01*
X006942Y006750D02*
X007248Y006750D01*
X007248Y006827D02*
X007248Y006520D01*
X007402Y006520D02*
X007632Y006520D01*
X007709Y006597D01*
X007709Y006904D01*
X007632Y006980D01*
X007402Y006980D01*
X007402Y006520D01*
X006942Y006520D02*
X006942Y006827D01*
X007095Y006980D01*
X007248Y006827D01*
X007862Y006597D02*
X007939Y006520D01*
X008016Y006520D01*
X008093Y006597D01*
X008093Y006980D01*
X008169Y006980D02*
X008016Y006980D01*
X008783Y006980D02*
X009013Y006980D01*
X009090Y006904D01*
X009090Y006827D01*
X009013Y006750D01*
X008783Y006750D01*
X009013Y006750D02*
X009090Y006673D01*
X009090Y006597D01*
X009013Y006520D01*
X008783Y006520D01*
X008783Y006980D01*
X009244Y006980D02*
X009474Y006980D01*
X009550Y006904D01*
X009550Y006827D01*
X009474Y006750D01*
X009244Y006750D01*
X009474Y006750D02*
X009550Y006673D01*
X009550Y006597D01*
X009474Y006520D01*
X009244Y006520D01*
X009244Y006980D01*
X009704Y006980D02*
X009934Y006980D01*
X010011Y006904D01*
X010011Y006750D01*
X009934Y006673D01*
X009704Y006673D01*
X009704Y006520D02*
X009704Y006980D01*
X010164Y006904D02*
X010164Y006827D01*
X010241Y006750D01*
X010395Y006750D01*
X010471Y006673D01*
X010471Y006597D01*
X010395Y006520D01*
X010241Y006520D01*
X010164Y006597D01*
X010164Y006904D02*
X010241Y006980D01*
X010395Y006980D01*
X010471Y006904D01*
X007910Y005248D02*
X007910Y004941D01*
X007603Y005248D01*
X007526Y005248D01*
X007450Y005171D01*
X007450Y005018D01*
X007526Y004941D01*
X007526Y004787D02*
X007603Y004787D01*
X007680Y004711D01*
X007680Y004557D01*
X007603Y004480D01*
X007526Y004480D01*
X007450Y004557D01*
X007450Y004711D01*
X007526Y004787D01*
X007680Y004711D02*
X007757Y004787D01*
X007833Y004787D01*
X007910Y004711D01*
X007910Y004557D01*
X007833Y004480D01*
X007757Y004480D01*
X007680Y004557D01*
X007757Y004327D02*
X007833Y004327D01*
X007910Y004250D01*
X007910Y004097D01*
X007833Y004020D01*
X007757Y004020D01*
X007680Y004097D01*
X007680Y004250D01*
X007757Y004327D01*
X007680Y004250D02*
X007603Y004327D01*
X007526Y004327D01*
X007450Y004250D01*
X007450Y004097D01*
X007526Y004020D01*
X007603Y004020D01*
X007680Y004097D01*
X007910Y003867D02*
X007450Y003560D01*
X007603Y003406D02*
X007910Y003406D01*
X007680Y003406D02*
X007680Y003099D01*
X007603Y003099D02*
X007450Y003253D01*
X007603Y003406D01*
X007910Y003560D02*
X007450Y003867D01*
X007603Y003099D02*
X007910Y003099D01*
X007910Y002946D02*
X007450Y002946D01*
X007603Y002792D01*
X007450Y002639D01*
X007910Y002639D01*
D12*
X007748Y001685D02*
X007625Y001685D01*
X007563Y001624D01*
X007563Y001377D01*
X007810Y001624D01*
X007810Y001377D01*
X007748Y001315D01*
X007625Y001315D01*
X007563Y001377D01*
X007442Y001562D02*
X007318Y001315D01*
X007195Y001562D01*
X007748Y001685D02*
X007810Y001624D01*
X008116Y001562D02*
X008239Y001685D01*
X008239Y001315D01*
X008116Y001315D02*
X008363Y001315D01*
X007993Y001315D02*
X007932Y001315D01*
X007932Y001377D01*
X007993Y001377D01*
X007993Y001315D01*
X012811Y001500D02*
X013058Y001500D01*
X012934Y001377D02*
X012934Y001624D01*
X013811Y001500D02*
X014058Y001500D01*
X014445Y001679D02*
X014445Y001776D01*
X014493Y001825D01*
X014687Y001825D01*
X014735Y001776D01*
X014735Y001679D01*
X014687Y001631D01*
X014493Y001631D01*
X014445Y001679D01*
X014445Y001926D02*
X014687Y001926D01*
X014735Y001974D01*
X014735Y002071D01*
X014687Y002119D01*
X014445Y002119D01*
X014445Y002220D02*
X014445Y002414D01*
X014445Y002317D02*
X014735Y002317D01*
X014735Y002724D02*
X014735Y002821D01*
X014735Y002772D02*
X014445Y002772D01*
X014445Y002724D02*
X014445Y002821D01*
X014445Y002920D02*
X014735Y003114D01*
X014445Y003114D01*
X014445Y002920D02*
X014735Y002920D01*
D13*
X010180Y003000D02*
X010182Y003063D01*
X010188Y003125D01*
X010198Y003187D01*
X010211Y003249D01*
X010229Y003309D01*
X010250Y003368D01*
X010275Y003426D01*
X010304Y003482D01*
X010336Y003536D01*
X010371Y003588D01*
X010409Y003637D01*
X010451Y003685D01*
X010495Y003729D01*
X010543Y003771D01*
X010592Y003809D01*
X010644Y003844D01*
X010698Y003876D01*
X010754Y003905D01*
X010812Y003930D01*
X010871Y003951D01*
X010931Y003969D01*
X010993Y003982D01*
X011055Y003992D01*
X011117Y003998D01*
X011180Y004000D01*
X011243Y003998D01*
X011305Y003992D01*
X011367Y003982D01*
X011429Y003969D01*
X011489Y003951D01*
X011548Y003930D01*
X011606Y003905D01*
X011662Y003876D01*
X011716Y003844D01*
X011768Y003809D01*
X011817Y003771D01*
X011865Y003729D01*
X011909Y003685D01*
X011951Y003637D01*
X011989Y003588D01*
X012024Y003536D01*
X012056Y003482D01*
X012085Y003426D01*
X012110Y003368D01*
X012131Y003309D01*
X012149Y003249D01*
X012162Y003187D01*
X012172Y003125D01*
X012178Y003063D01*
X012180Y003000D01*
X012178Y002937D01*
X012172Y002875D01*
X012162Y002813D01*
X012149Y002751D01*
X012131Y002691D01*
X012110Y002632D01*
X012085Y002574D01*
X012056Y002518D01*
X012024Y002464D01*
X011989Y002412D01*
X011951Y002363D01*
X011909Y002315D01*
X011865Y002271D01*
X011817Y002229D01*
X011768Y002191D01*
X011716Y002156D01*
X011662Y002124D01*
X011606Y002095D01*
X011548Y002070D01*
X011489Y002049D01*
X011429Y002031D01*
X011367Y002018D01*
X011305Y002008D01*
X011243Y002002D01*
X011180Y002000D01*
X011117Y002002D01*
X011055Y002008D01*
X010993Y002018D01*
X010931Y002031D01*
X010871Y002049D01*
X010812Y002070D01*
X010754Y002095D01*
X010698Y002124D01*
X010644Y002156D01*
X010592Y002191D01*
X010543Y002229D01*
X010495Y002271D01*
X010451Y002315D01*
X010409Y002363D01*
X010371Y002412D01*
X010336Y002464D01*
X010304Y002518D01*
X010275Y002574D01*
X010250Y002632D01*
X010229Y002691D01*
X010211Y002751D01*
X010198Y002813D01*
X010188Y002875D01*
X010182Y002937D01*
X010180Y003000D01*
X010630Y003400D02*
X010630Y003500D01*
X010630Y003600D01*
X010630Y003500D02*
X010530Y003500D01*
X010630Y003500D02*
X010730Y003500D01*
X008830Y002000D02*
X006530Y002000D01*
X006530Y006000D01*
X007280Y006000D01*
X007282Y005961D01*
X007288Y005922D01*
X007297Y005884D01*
X007310Y005847D01*
X007327Y005811D01*
X007347Y005778D01*
X007371Y005746D01*
X007397Y005717D01*
X007426Y005691D01*
X007458Y005667D01*
X007491Y005647D01*
X007527Y005630D01*
X007564Y005617D01*
X007602Y005608D01*
X007641Y005602D01*
X007680Y005600D01*
X007719Y005602D01*
X007758Y005608D01*
X007796Y005617D01*
X007833Y005630D01*
X007869Y005647D01*
X007902Y005667D01*
X007934Y005691D01*
X007963Y005717D01*
X007989Y005746D01*
X008013Y005778D01*
X008033Y005811D01*
X008050Y005847D01*
X008063Y005884D01*
X008072Y005922D01*
X008078Y005961D01*
X008080Y006000D01*
X008830Y006000D01*
X008830Y002000D01*
X005021Y003650D02*
X004176Y003650D01*
X004176Y003886D01*
X003184Y003886D01*
X003184Y003650D01*
X002339Y003650D01*
X002339Y006248D01*
X002930Y006839D01*
X004430Y006839D01*
X005021Y006248D01*
X005021Y003650D01*
X004580Y003000D02*
X003780Y003000D01*
X003680Y002900D01*
X003580Y003000D01*
X002780Y003000D01*
X002680Y002900D01*
X002680Y002100D01*
X002780Y002000D01*
X003580Y002000D01*
X003680Y002100D01*
X003780Y002000D01*
X004580Y002000D01*
X004680Y002100D01*
X004680Y002900D01*
X004580Y003000D01*
X003845Y004837D02*
X003845Y005335D01*
X002997Y005500D02*
X002999Y005552D01*
X003005Y005603D01*
X003015Y005654D01*
X003028Y005704D01*
X003045Y005752D01*
X003066Y005800D01*
X003091Y005845D01*
X003118Y005889D01*
X003149Y005930D01*
X003184Y005969D01*
X003220Y006005D01*
X003260Y006039D01*
X003302Y006069D01*
X003346Y006096D01*
X003392Y006119D01*
X003440Y006139D01*
X003489Y006156D01*
X003539Y006168D01*
X003590Y006177D01*
X003641Y006182D01*
X003693Y006183D01*
X003745Y006180D01*
X003796Y006173D01*
X003846Y006162D01*
X003896Y006148D01*
X003944Y006130D01*
X003991Y006108D01*
X004036Y006083D01*
X004079Y006054D01*
X004120Y006022D01*
X004158Y005988D01*
X004194Y005950D01*
X004226Y005910D01*
X004256Y005867D01*
X004282Y005823D01*
X004305Y005776D01*
X004324Y005728D01*
X004339Y005679D01*
X004351Y005628D01*
X004359Y005577D01*
X004363Y005526D01*
X004363Y005474D01*
X004359Y005423D01*
X004351Y005372D01*
X004339Y005321D01*
X004324Y005272D01*
X004305Y005224D01*
X004282Y005177D01*
X004256Y005133D01*
X004226Y005090D01*
X004194Y005050D01*
X004158Y005012D01*
X004120Y004978D01*
X004079Y004946D01*
X004036Y004917D01*
X003991Y004892D01*
X003944Y004870D01*
X003896Y004852D01*
X003846Y004838D01*
X003796Y004827D01*
X003745Y004820D01*
X003693Y004817D01*
X003641Y004818D01*
X003590Y004823D01*
X003539Y004832D01*
X003489Y004844D01*
X003440Y004861D01*
X003392Y004881D01*
X003346Y004904D01*
X003302Y004931D01*
X003260Y004961D01*
X003220Y004995D01*
X003184Y005031D01*
X003149Y005070D01*
X003118Y005111D01*
X003091Y005155D01*
X003066Y005200D01*
X003045Y005248D01*
X003028Y005296D01*
X003015Y005346D01*
X003005Y005397D01*
X002999Y005448D01*
X002997Y005500D01*
X003017Y005335D02*
X004343Y005335D01*
X004343Y005665D02*
X003017Y005665D01*
X003515Y005665D02*
X003515Y006163D01*
X003845Y006163D02*
X003845Y005665D01*
X003515Y005335D02*
X003515Y004837D01*
X010330Y005250D02*
X010330Y005750D01*
X010332Y005776D01*
X010337Y005802D01*
X010345Y005827D01*
X010357Y005850D01*
X010371Y005872D01*
X010389Y005891D01*
X010408Y005909D01*
X010430Y005923D01*
X010453Y005935D01*
X010478Y005943D01*
X010504Y005948D01*
X010530Y005950D01*
X011830Y005950D01*
X011856Y005948D01*
X011882Y005943D01*
X011907Y005935D01*
X011930Y005923D01*
X011952Y005909D01*
X011971Y005891D01*
X011989Y005872D01*
X012003Y005850D01*
X012015Y005827D01*
X012023Y005802D01*
X012028Y005776D01*
X012030Y005750D01*
X012030Y005250D01*
X012028Y005224D01*
X012023Y005198D01*
X012015Y005173D01*
X012003Y005150D01*
X011989Y005128D01*
X011971Y005109D01*
X011952Y005091D01*
X011930Y005077D01*
X011907Y005065D01*
X011882Y005057D01*
X011856Y005052D01*
X011830Y005050D01*
X010530Y005050D01*
X010504Y005052D01*
X010478Y005057D01*
X010453Y005065D01*
X010430Y005077D01*
X010408Y005091D01*
X010389Y005109D01*
X010371Y005128D01*
X010357Y005150D01*
X010345Y005173D01*
X010337Y005198D01*
X010332Y005224D01*
X010330Y005250D01*
D14*
X010920Y004725D02*
X010845Y004650D01*
X010845Y004350D01*
X010920Y004275D01*
X011070Y004275D01*
X011145Y004350D01*
X011305Y004275D02*
X011605Y004275D01*
X011455Y004275D02*
X011455Y004725D01*
X011305Y004575D01*
X011145Y004650D02*
X011070Y004725D01*
X010920Y004725D01*
X012814Y003975D02*
X013040Y003975D01*
X013115Y003900D01*
X013115Y003750D01*
X013040Y003675D01*
X012814Y003675D01*
X012814Y003525D02*
X012814Y003975D01*
X013275Y003900D02*
X013275Y003600D01*
X013350Y003525D01*
X013500Y003525D01*
X013575Y003600D01*
X013575Y003900D01*
X013500Y003975D01*
X013350Y003975D01*
X013275Y003900D01*
X013735Y003975D02*
X013735Y003525D01*
X013885Y003675D01*
X014035Y003525D01*
X014035Y003975D01*
X011555Y006225D02*
X011255Y006225D01*
X011555Y006525D01*
X011555Y006600D01*
X011480Y006675D01*
X011330Y006675D01*
X011255Y006600D01*
X011095Y006600D02*
X011020Y006675D01*
X010870Y006675D01*
X010795Y006600D01*
X010795Y006300D01*
X010870Y006225D01*
X011020Y006225D01*
X011095Y006300D01*
X001985Y004775D02*
X001685Y004775D01*
X001835Y004775D02*
X001835Y005225D01*
X001685Y005075D01*
X001525Y005000D02*
X001450Y004925D01*
X001225Y004925D01*
X001375Y004925D02*
X001525Y004775D01*
X001225Y004775D02*
X001225Y005225D01*
X001450Y005225D01*
X001525Y005150D01*
X001525Y005000D01*
X002934Y001825D02*
X003084Y001675D01*
X003084Y001375D01*
X003245Y001375D02*
X003470Y001375D01*
X003545Y001450D01*
X003545Y001750D01*
X003470Y001825D01*
X003245Y001825D01*
X003245Y001375D01*
X002784Y001375D02*
X002784Y001675D01*
X002934Y001825D01*
X002784Y001600D02*
X003084Y001600D01*
X003705Y001450D02*
X003780Y001375D01*
X003855Y001375D01*
X003930Y001450D01*
X003930Y001825D01*
X003855Y001825D02*
X004005Y001825D01*
X004165Y001825D02*
X004165Y001525D01*
X004316Y001375D01*
X004466Y001525D01*
X004466Y001825D01*
D15*
X011060Y005200D02*
X011060Y005800D01*
X011310Y005800D02*
X011310Y005200D01*
M02*
