G75*
%MOIN*%
%OFA0B0*%
%FSLAX24Y24*%
%IPPOS*%
%LPD*%
%AMOC8*
5,1,8,0,0,1.08239X$1,22.5*
%
%ADD10OC8,0.0630*%
%ADD11C,0.0630*%
%ADD12OC8,0.0480*%
%ADD13C,0.0540*%
%ADD14C,0.0480*%
%ADD15C,0.0591*%
%ADD16OC8,0.0600*%
%ADD17C,0.0100*%
%ADD18C,0.0160*%
%ADD19C,0.0376*%
D10*
X011680Y002680D03*
D11*
X010680Y002680D03*
D12*
X010680Y005180D03*
X011680Y005180D03*
D13*
X004180Y002450D02*
X004180Y001910D01*
X003180Y001910D02*
X003180Y002450D01*
D14*
X005940Y002180D02*
X006420Y002180D01*
X006420Y003180D02*
X005940Y003180D01*
X005940Y004180D02*
X006420Y004180D01*
X006420Y005180D02*
X005940Y005180D01*
X008940Y005180D02*
X009420Y005180D01*
X009420Y004180D02*
X008940Y004180D01*
X008940Y003180D02*
X009420Y003180D01*
X009420Y002180D02*
X008940Y002180D01*
D15*
X004914Y004196D03*
X002946Y004196D03*
X003930Y006164D03*
D16*
X012930Y002680D03*
X013930Y002680D03*
X013930Y001680D03*
X012930Y001680D03*
D17*
X010680Y005180D02*
X010490Y005180D01*
D18*
X000910Y001792D02*
X000910Y000910D01*
X014820Y000910D01*
X014820Y003239D01*
X014806Y003562D01*
X014694Y004198D01*
X014473Y004806D01*
X014150Y005365D01*
X013734Y005860D01*
X013239Y006276D01*
X012680Y006599D01*
X012073Y006820D01*
X011436Y006932D01*
X011113Y006946D01*
X000910Y006946D01*
X000910Y006068D01*
X000951Y006167D01*
X001193Y006409D01*
X001509Y006540D01*
X001851Y006540D01*
X002167Y006409D01*
X002409Y006167D01*
X002540Y005851D01*
X002540Y005509D01*
X002409Y005193D01*
X002167Y004951D01*
X001851Y004820D01*
X001509Y004820D01*
X001193Y004951D01*
X000951Y005193D01*
X000910Y005292D01*
X000910Y002568D01*
X000951Y002667D01*
X001193Y002909D01*
X001509Y003040D01*
X001851Y003040D01*
X002167Y002909D01*
X002409Y002667D01*
X002540Y002351D01*
X002540Y002009D01*
X002409Y001693D01*
X002167Y001451D01*
X001851Y001320D01*
X001509Y001320D01*
X001193Y001451D01*
X000951Y001693D01*
X000910Y001792D01*
X000910Y001790D02*
X000911Y001790D01*
X000910Y001631D02*
X001013Y001631D01*
X000910Y001473D02*
X001171Y001473D01*
X000910Y001314D02*
X012674Y001314D01*
X012748Y001240D02*
X013112Y001240D01*
X013370Y001498D01*
X013370Y001862D01*
X013112Y002120D01*
X012748Y002120D01*
X012490Y001862D01*
X012490Y001498D01*
X012748Y001240D01*
X013186Y001314D02*
X013674Y001314D01*
X013748Y001240D02*
X014112Y001240D01*
X014370Y001498D01*
X014370Y001862D01*
X014112Y002120D01*
X013748Y002120D01*
X013490Y001862D01*
X013490Y001498D01*
X013748Y001240D01*
X014186Y001314D02*
X014820Y001314D01*
X014820Y001156D02*
X000910Y001156D01*
X000910Y000997D02*
X014820Y000997D01*
X014820Y001473D02*
X014345Y001473D01*
X014370Y001631D02*
X014820Y001631D01*
X014820Y001790D02*
X014370Y001790D01*
X014284Y001948D02*
X014820Y001948D01*
X014820Y002107D02*
X014126Y002107D01*
X014129Y002200D02*
X013950Y002200D01*
X013950Y002660D01*
X013950Y002700D01*
X013910Y002700D01*
X013910Y003160D01*
X013731Y003160D01*
X013450Y002879D01*
X013450Y002700D01*
X013910Y002700D01*
X013910Y002660D01*
X013450Y002660D01*
X013450Y002481D01*
X013731Y002200D01*
X013910Y002200D01*
X013910Y002660D01*
X013950Y002660D01*
X014410Y002660D01*
X014410Y002481D01*
X014129Y002200D01*
X014194Y002265D02*
X014820Y002265D01*
X014820Y002424D02*
X014352Y002424D01*
X014410Y002582D02*
X014820Y002582D01*
X014820Y002741D02*
X014410Y002741D01*
X014410Y002700D02*
X014410Y002879D01*
X014129Y003160D01*
X013950Y003160D01*
X013950Y002700D01*
X014410Y002700D01*
X014390Y002899D02*
X014820Y002899D01*
X014820Y003058D02*
X014231Y003058D01*
X013950Y003058D02*
X013910Y003058D01*
X013910Y002899D02*
X013950Y002899D01*
X013950Y002741D02*
X013910Y002741D01*
X013910Y002582D02*
X013950Y002582D01*
X013950Y002424D02*
X013910Y002424D01*
X013910Y002265D02*
X013950Y002265D01*
X013734Y002107D02*
X013126Y002107D01*
X013129Y002200D02*
X012950Y002200D01*
X012950Y002660D01*
X012950Y002700D01*
X012910Y002700D01*
X012910Y003160D01*
X012731Y003160D01*
X012450Y002879D01*
X012450Y002700D01*
X012910Y002700D01*
X012910Y002660D01*
X012450Y002660D01*
X012450Y002481D01*
X012731Y002200D01*
X012910Y002200D01*
X012910Y002660D01*
X012950Y002660D01*
X013410Y002660D01*
X013410Y002481D01*
X013129Y002200D01*
X013194Y002265D02*
X013666Y002265D01*
X013508Y002424D02*
X013352Y002424D01*
X013410Y002582D02*
X013450Y002582D01*
X013410Y002700D02*
X013410Y002879D01*
X013129Y003160D01*
X012950Y003160D01*
X012950Y002700D01*
X013410Y002700D01*
X013410Y002741D02*
X013450Y002741D01*
X013470Y002899D02*
X013390Y002899D01*
X013231Y003058D02*
X013629Y003058D01*
X012950Y003058D02*
X012910Y003058D01*
X012910Y002899D02*
X012950Y002899D01*
X012950Y002741D02*
X012910Y002741D01*
X012910Y002582D02*
X012950Y002582D01*
X012950Y002424D02*
X012910Y002424D01*
X012910Y002265D02*
X012950Y002265D01*
X012734Y002107D02*
X009800Y002107D01*
X009800Y002104D02*
X009800Y002256D01*
X009742Y002395D01*
X009635Y002502D01*
X009496Y002560D01*
X008864Y002560D01*
X008725Y002502D01*
X008618Y002395D01*
X008560Y002256D01*
X008560Y002104D01*
X008618Y001965D01*
X008725Y001858D01*
X008864Y001800D01*
X009496Y001800D01*
X009635Y001858D01*
X009742Y001965D01*
X009800Y002104D01*
X009796Y002265D02*
X010493Y002265D01*
X010422Y002294D02*
X010589Y002225D01*
X010771Y002225D01*
X010938Y002294D01*
X011066Y002422D01*
X011135Y002589D01*
X011135Y002771D01*
X011066Y002938D01*
X010938Y003066D01*
X010771Y003135D01*
X010589Y003135D01*
X010422Y003066D01*
X010294Y002938D01*
X010225Y002771D01*
X010225Y002589D01*
X010294Y002422D01*
X010422Y002294D01*
X010294Y002424D02*
X009714Y002424D01*
X010228Y002582D02*
X004569Y002582D01*
X004590Y002532D02*
X004528Y002682D01*
X004412Y002798D01*
X004262Y002860D01*
X004098Y002860D01*
X003948Y002798D01*
X003832Y002682D01*
X003770Y002532D01*
X003770Y001828D01*
X003832Y001678D01*
X003948Y001562D01*
X004098Y001500D01*
X004262Y001500D01*
X004412Y001562D01*
X004528Y001678D01*
X004590Y001828D01*
X004590Y002532D01*
X004590Y002424D02*
X005646Y002424D01*
X005618Y002395D02*
X005560Y002256D01*
X005560Y002104D01*
X005618Y001965D01*
X005725Y001858D01*
X005864Y001800D01*
X006496Y001800D01*
X006635Y001858D01*
X006742Y001965D01*
X006800Y002104D01*
X006800Y002256D01*
X006742Y002395D01*
X006635Y002502D01*
X006496Y002560D01*
X005864Y002560D01*
X005725Y002502D01*
X005618Y002395D01*
X005564Y002265D02*
X004590Y002265D01*
X004590Y002107D02*
X005560Y002107D01*
X005635Y001948D02*
X004590Y001948D01*
X004574Y001790D02*
X012490Y001790D01*
X012490Y001631D02*
X004481Y001631D01*
X003879Y001631D02*
X003481Y001631D01*
X003528Y001678D02*
X003412Y001562D01*
X003262Y001500D01*
X003098Y001500D01*
X002948Y001562D01*
X002832Y001678D01*
X002770Y001828D01*
X002770Y002532D01*
X002832Y002682D01*
X002948Y002798D01*
X003098Y002860D01*
X003262Y002860D01*
X003412Y002798D01*
X003528Y002682D01*
X003590Y002532D01*
X003590Y001828D01*
X003528Y001678D01*
X003574Y001790D02*
X003786Y001790D01*
X003770Y001948D02*
X003590Y001948D01*
X003590Y002107D02*
X003770Y002107D01*
X003770Y002265D02*
X003590Y002265D01*
X003590Y002424D02*
X003770Y002424D01*
X003791Y002582D02*
X003569Y002582D01*
X003469Y002741D02*
X003891Y002741D01*
X004469Y002741D02*
X010225Y002741D01*
X010278Y002899D02*
X009733Y002899D01*
X009740Y002906D02*
X009779Y002960D01*
X009809Y003019D01*
X009830Y003082D01*
X009840Y003147D01*
X009840Y003180D01*
X009840Y003213D01*
X009830Y003278D01*
X009809Y003341D01*
X009779Y003400D01*
X009740Y003454D01*
X009694Y003500D01*
X009640Y003539D01*
X009581Y003569D01*
X009518Y003590D01*
X009453Y003600D01*
X009180Y003600D01*
X009180Y003180D01*
X009180Y003180D01*
X009840Y003180D01*
X009180Y003180D01*
X009180Y003180D01*
X009180Y002760D01*
X009453Y002760D01*
X009518Y002770D01*
X009581Y002791D01*
X009640Y002821D01*
X009694Y002860D01*
X009740Y002906D01*
X009822Y003058D02*
X010414Y003058D01*
X009840Y003216D02*
X014820Y003216D01*
X014814Y003375D02*
X009792Y003375D01*
X009649Y003533D02*
X014807Y003533D01*
X014783Y003692D02*
X000910Y003692D01*
X000910Y003850D02*
X002676Y003850D01*
X002699Y003827D02*
X002859Y003760D01*
X003032Y003760D01*
X003192Y003827D01*
X003315Y003949D01*
X003381Y004109D01*
X003381Y004282D01*
X003315Y004442D01*
X003192Y004565D01*
X003032Y004631D01*
X002859Y004631D01*
X002699Y004565D01*
X002577Y004442D01*
X002510Y004282D01*
X002510Y004109D01*
X002577Y003949D01*
X002699Y003827D01*
X002552Y004009D02*
X000910Y004009D01*
X000910Y004167D02*
X002510Y004167D01*
X002528Y004326D02*
X000910Y004326D01*
X000910Y004484D02*
X002618Y004484D01*
X003273Y004484D02*
X004536Y004484D01*
X004552Y004505D02*
X004508Y004445D01*
X004474Y004378D01*
X004451Y004307D01*
X004439Y004233D01*
X004439Y004214D01*
X004896Y004214D01*
X004896Y004177D01*
X004933Y004177D01*
X004933Y004214D01*
X005390Y004214D01*
X005390Y004233D01*
X005378Y004307D01*
X005355Y004378D01*
X005321Y004445D01*
X005277Y004505D01*
X005224Y004558D01*
X005163Y004602D01*
X005097Y004636D01*
X005026Y004659D01*
X004952Y004671D01*
X004933Y004671D01*
X004933Y004214D01*
X004896Y004214D01*
X004896Y004671D01*
X004877Y004671D01*
X004803Y004659D01*
X004732Y004636D01*
X004665Y004602D01*
X004605Y004558D01*
X004552Y004505D01*
X004457Y004326D02*
X003363Y004326D01*
X003381Y004167D02*
X004439Y004167D01*
X004439Y004158D02*
X004439Y004177D01*
X004896Y004177D01*
X004896Y003720D01*
X004877Y003720D01*
X004803Y003732D01*
X004732Y003755D01*
X004665Y003789D01*
X004605Y003833D01*
X004552Y003886D01*
X004508Y003947D01*
X004474Y004013D01*
X004451Y004084D01*
X004439Y004158D01*
X004476Y004009D02*
X003339Y004009D01*
X003216Y003850D02*
X004588Y003850D01*
X004896Y003850D02*
X004933Y003850D01*
X004933Y003720D02*
X004952Y003720D01*
X005026Y003732D01*
X005097Y003755D01*
X005163Y003789D01*
X005224Y003833D01*
X005277Y003886D01*
X005321Y003947D01*
X005355Y004013D01*
X005378Y004084D01*
X005390Y004158D01*
X005390Y004177D01*
X004933Y004177D01*
X004933Y003720D01*
X005241Y003850D02*
X005744Y003850D01*
X005725Y003858D02*
X005864Y003800D01*
X006496Y003800D01*
X006635Y003858D01*
X006742Y003965D01*
X006800Y004104D01*
X006800Y004256D01*
X006742Y004395D01*
X006635Y004502D01*
X006496Y004560D01*
X005864Y004560D01*
X005725Y004502D01*
X005618Y004395D01*
X005560Y004256D01*
X005560Y004104D01*
X005618Y003965D01*
X005725Y003858D01*
X005600Y004009D02*
X005352Y004009D01*
X005390Y004167D02*
X005560Y004167D01*
X005589Y004326D02*
X005372Y004326D01*
X005292Y004484D02*
X005707Y004484D01*
X005077Y004643D02*
X012320Y004643D01*
X012320Y004509D02*
X012451Y004193D01*
X012693Y003951D01*
X013009Y003820D01*
X013351Y003820D01*
X013667Y003951D01*
X013909Y004193D01*
X014040Y004509D01*
X014040Y004851D01*
X013909Y005167D01*
X013667Y005409D01*
X013351Y005540D01*
X013009Y005540D01*
X012693Y005409D01*
X012451Y005167D01*
X012320Y004851D01*
X012320Y004509D01*
X012330Y004484D02*
X009653Y004484D01*
X009635Y004502D02*
X009496Y004560D01*
X008864Y004560D01*
X008725Y004502D01*
X008618Y004395D01*
X008560Y004256D01*
X008560Y004104D01*
X008618Y003965D01*
X008725Y003858D01*
X008864Y003800D01*
X009496Y003800D01*
X009635Y003858D01*
X009742Y003965D01*
X009800Y004104D01*
X009800Y004256D01*
X009742Y004395D01*
X009635Y004502D01*
X009771Y004326D02*
X012396Y004326D01*
X012477Y004167D02*
X009800Y004167D01*
X009760Y004009D02*
X012635Y004009D01*
X012937Y003850D02*
X009616Y003850D01*
X009180Y003600D02*
X008907Y003600D01*
X008842Y003590D01*
X008779Y003569D01*
X008720Y003539D01*
X008666Y003500D01*
X008620Y003454D01*
X008581Y003400D01*
X008551Y003341D01*
X008530Y003278D01*
X008520Y003213D01*
X008520Y003180D01*
X009180Y003180D01*
X009180Y003180D01*
X009180Y003180D01*
X009180Y003600D01*
X009180Y003533D02*
X009180Y003533D01*
X009180Y003375D02*
X009180Y003375D01*
X009180Y003216D02*
X009180Y003216D01*
X009180Y003180D02*
X008520Y003180D01*
X008520Y003147D01*
X008530Y003082D01*
X008551Y003019D01*
X008581Y002960D01*
X008620Y002906D01*
X008666Y002860D01*
X008720Y002821D01*
X008779Y002791D01*
X008842Y002770D01*
X008907Y002760D01*
X009180Y002760D01*
X009180Y003180D01*
X009180Y003058D02*
X009180Y003058D01*
X009180Y002899D02*
X009180Y002899D01*
X008627Y002899D02*
X006733Y002899D01*
X006740Y002906D02*
X006779Y002960D01*
X006809Y003019D01*
X006830Y003082D01*
X006840Y003147D01*
X006840Y003180D01*
X006840Y003213D01*
X006830Y003278D01*
X006809Y003341D01*
X006779Y003400D01*
X006740Y003454D01*
X006694Y003500D01*
X006640Y003539D01*
X006581Y003569D01*
X006518Y003590D01*
X006453Y003600D01*
X006180Y003600D01*
X006180Y003180D01*
X006180Y003180D01*
X006840Y003180D01*
X006180Y003180D01*
X006180Y003180D01*
X006180Y002760D01*
X006453Y002760D01*
X006518Y002770D01*
X006581Y002791D01*
X006640Y002821D01*
X006694Y002860D01*
X006740Y002906D01*
X006822Y003058D02*
X008538Y003058D01*
X008520Y003216D02*
X006840Y003216D01*
X006792Y003375D02*
X008568Y003375D01*
X008711Y003533D02*
X006649Y003533D01*
X006180Y003533D02*
X006180Y003533D01*
X006180Y003600D02*
X005907Y003600D01*
X005842Y003590D01*
X005779Y003569D01*
X005720Y003539D01*
X005666Y003500D01*
X005620Y003454D01*
X005581Y003400D01*
X005551Y003341D01*
X005530Y003278D01*
X005520Y003213D01*
X005520Y003180D01*
X006180Y003180D01*
X006180Y003180D01*
X006180Y003180D01*
X006180Y003600D01*
X006180Y003375D02*
X006180Y003375D01*
X006180Y003216D02*
X006180Y003216D01*
X006180Y003180D02*
X005520Y003180D01*
X005520Y003147D01*
X005530Y003082D01*
X005551Y003019D01*
X005581Y002960D01*
X005620Y002906D01*
X005666Y002860D01*
X005720Y002821D01*
X005779Y002791D01*
X005842Y002770D01*
X005907Y002760D01*
X006180Y002760D01*
X006180Y003180D01*
X006180Y003058D02*
X006180Y003058D01*
X006180Y002899D02*
X006180Y002899D01*
X005627Y002899D02*
X002177Y002899D01*
X002336Y002741D02*
X002891Y002741D01*
X002791Y002582D02*
X002444Y002582D01*
X002510Y002424D02*
X002770Y002424D01*
X002770Y002265D02*
X002540Y002265D01*
X002540Y002107D02*
X002770Y002107D01*
X002770Y001948D02*
X002515Y001948D01*
X002449Y001790D02*
X002786Y001790D01*
X002879Y001631D02*
X002347Y001631D01*
X002189Y001473D02*
X012515Y001473D01*
X013345Y001473D02*
X013515Y001473D01*
X013490Y001631D02*
X013370Y001631D01*
X013370Y001790D02*
X013490Y001790D01*
X013576Y001948D02*
X013284Y001948D01*
X012666Y002265D02*
X011965Y002265D01*
X011885Y002185D02*
X011680Y002185D01*
X011680Y002680D01*
X012175Y002680D01*
X012175Y002885D01*
X011885Y003175D01*
X011680Y003175D01*
X011680Y002680D01*
X011680Y002680D01*
X011680Y002680D01*
X012175Y002680D01*
X012175Y002475D01*
X011885Y002185D01*
X011680Y002185D02*
X011680Y002680D01*
X011680Y002680D01*
X011680Y002680D01*
X011185Y002680D01*
X011185Y002885D01*
X011475Y003175D01*
X011680Y003175D01*
X011680Y002680D01*
X011185Y002680D01*
X011185Y002475D01*
X011475Y002185D01*
X011680Y002185D01*
X011680Y002265D02*
X011680Y002265D01*
X011680Y002424D02*
X011680Y002424D01*
X011680Y002582D02*
X011680Y002582D01*
X011680Y002741D02*
X011680Y002741D01*
X011680Y002899D02*
X011680Y002899D01*
X011680Y003058D02*
X011680Y003058D01*
X012003Y003058D02*
X012629Y003058D01*
X012470Y002899D02*
X012161Y002899D01*
X012175Y002741D02*
X012450Y002741D01*
X012450Y002582D02*
X012175Y002582D01*
X012124Y002424D02*
X012508Y002424D01*
X012576Y001948D02*
X009725Y001948D01*
X010867Y002265D02*
X011395Y002265D01*
X011236Y002424D02*
X011066Y002424D01*
X011132Y002582D02*
X011185Y002582D01*
X011185Y002741D02*
X011135Y002741D01*
X011082Y002899D02*
X011199Y002899D01*
X011357Y003058D02*
X010946Y003058D01*
X008744Y003850D02*
X006616Y003850D01*
X006760Y004009D02*
X008600Y004009D01*
X008560Y004167D02*
X006800Y004167D01*
X006771Y004326D02*
X008589Y004326D01*
X008707Y004484D02*
X006653Y004484D01*
X006498Y004801D02*
X008862Y004801D01*
X008864Y004800D02*
X009496Y004800D01*
X009635Y004858D01*
X009742Y004965D01*
X009800Y005104D01*
X009800Y005256D01*
X009742Y005395D01*
X009635Y005502D01*
X009496Y005560D01*
X008864Y005560D01*
X008725Y005502D01*
X008618Y005395D01*
X008560Y005256D01*
X008560Y005104D01*
X008618Y004965D01*
X008725Y004858D01*
X008864Y004800D01*
X008623Y004960D02*
X006737Y004960D01*
X006742Y004965D02*
X006800Y005104D01*
X006800Y005256D01*
X006742Y005395D01*
X006635Y005502D01*
X006496Y005560D01*
X005864Y005560D01*
X005725Y005502D01*
X005618Y005395D01*
X005560Y005256D01*
X005560Y005104D01*
X005618Y004965D01*
X005725Y004858D01*
X005864Y004800D01*
X006496Y004800D01*
X006635Y004858D01*
X006742Y004965D01*
X006800Y005118D02*
X008560Y005118D01*
X008569Y005277D02*
X006791Y005277D01*
X006702Y005435D02*
X008658Y005435D01*
X009702Y005435D02*
X010398Y005435D01*
X010300Y005337D02*
X010523Y005560D01*
X010837Y005560D01*
X011060Y005337D01*
X011060Y005023D01*
X010837Y004800D01*
X010523Y004800D01*
X010300Y005023D01*
X010300Y005337D01*
X010300Y005277D02*
X009791Y005277D01*
X009800Y005118D02*
X010300Y005118D01*
X010363Y004960D02*
X009737Y004960D01*
X009498Y004801D02*
X010522Y004801D01*
X010838Y004801D02*
X011465Y004801D01*
X011506Y004760D02*
X011680Y004760D01*
X011854Y004760D01*
X012100Y005006D01*
X012100Y005180D01*
X012100Y005354D01*
X011854Y005600D01*
X011680Y005600D01*
X011680Y005180D01*
X012100Y005180D01*
X011680Y005180D01*
X011680Y005180D01*
X011680Y005180D01*
X011680Y004760D01*
X011680Y005180D01*
X011680Y005180D01*
X011680Y005180D01*
X011260Y005180D01*
X011260Y005354D01*
X011506Y005600D01*
X011680Y005600D01*
X011680Y005180D01*
X011260Y005180D01*
X011260Y005006D01*
X011506Y004760D01*
X011680Y004801D02*
X011680Y004801D01*
X011895Y004801D02*
X012320Y004801D01*
X012365Y004960D02*
X012053Y004960D01*
X012100Y005118D02*
X012431Y005118D01*
X012560Y005277D02*
X012100Y005277D01*
X012019Y005435D02*
X012756Y005435D01*
X013604Y005435D02*
X014091Y005435D01*
X014201Y005277D02*
X013800Y005277D01*
X013929Y005118D02*
X014292Y005118D01*
X014384Y004960D02*
X013995Y004960D01*
X014040Y004801D02*
X014474Y004801D01*
X014532Y004643D02*
X014040Y004643D01*
X014030Y004484D02*
X014590Y004484D01*
X014648Y004326D02*
X013964Y004326D01*
X013883Y004167D02*
X014699Y004167D01*
X014727Y004009D02*
X013725Y004009D01*
X013423Y003850D02*
X014755Y003850D01*
X011680Y004960D02*
X011680Y004960D01*
X011680Y005118D02*
X011680Y005118D01*
X011680Y005277D02*
X011680Y005277D01*
X011680Y005435D02*
X011680Y005435D01*
X011680Y005594D02*
X011680Y005594D01*
X011860Y005594D02*
X013958Y005594D01*
X013825Y005752D02*
X004072Y005752D01*
X004017Y005729D02*
X003843Y005729D01*
X003683Y005795D01*
X003561Y005918D01*
X003495Y006078D01*
X003495Y006251D01*
X003561Y006411D01*
X003683Y006533D01*
X003843Y006600D01*
X004017Y006600D01*
X004177Y006533D01*
X004299Y006411D01*
X004365Y006251D01*
X004365Y006078D01*
X004299Y005918D01*
X004177Y005795D01*
X004017Y005729D01*
X003788Y005752D02*
X002540Y005752D01*
X002540Y005594D02*
X011500Y005594D01*
X011341Y005435D02*
X010962Y005435D01*
X011060Y005277D02*
X011260Y005277D01*
X011260Y005118D02*
X011060Y005118D01*
X010997Y004960D02*
X011307Y004960D01*
X013674Y005911D02*
X004292Y005911D01*
X004362Y006069D02*
X013486Y006069D01*
X013297Y006228D02*
X004365Y006228D01*
X004309Y006386D02*
X013048Y006386D01*
X012774Y006545D02*
X004149Y006545D01*
X003711Y006545D02*
X000910Y006545D01*
X000910Y006703D02*
X012393Y006703D01*
X011836Y006862D02*
X000910Y006862D01*
X000910Y006386D02*
X001170Y006386D01*
X001011Y006228D02*
X000910Y006228D01*
X000910Y006069D02*
X000910Y006069D01*
X002190Y006386D02*
X003551Y006386D01*
X003495Y006228D02*
X002349Y006228D01*
X002450Y006069D02*
X003498Y006069D01*
X003568Y005911D02*
X002515Y005911D01*
X002509Y005435D02*
X005658Y005435D01*
X005569Y005277D02*
X002444Y005277D01*
X002334Y005118D02*
X005560Y005118D01*
X005623Y004960D02*
X002176Y004960D01*
X001184Y004960D02*
X000910Y004960D01*
X000910Y005118D02*
X001026Y005118D01*
X000916Y005277D02*
X000910Y005277D01*
X000910Y004801D02*
X005862Y004801D01*
X004933Y004643D02*
X004896Y004643D01*
X004751Y004643D02*
X000910Y004643D01*
X000910Y003533D02*
X005711Y003533D01*
X005568Y003375D02*
X000910Y003375D01*
X000910Y003216D02*
X005520Y003216D01*
X005538Y003058D02*
X000910Y003058D01*
X000910Y002899D02*
X001183Y002899D01*
X001024Y002741D02*
X000910Y002741D01*
X000910Y002582D02*
X000916Y002582D01*
X004896Y004009D02*
X004933Y004009D01*
X004933Y004167D02*
X004896Y004167D01*
X004896Y004326D02*
X004933Y004326D01*
X004933Y004484D02*
X004896Y004484D01*
X006714Y002424D02*
X008646Y002424D01*
X008564Y002265D02*
X006796Y002265D01*
X006800Y002107D02*
X008560Y002107D01*
X008635Y001948D02*
X006725Y001948D01*
D19*
X010180Y004180D03*
X012680Y005680D03*
X001680Y003680D03*
M02*
