G75*
%MOIN*%
%OFA0B0*%
%FSLAX24Y24*%
%IPPOS*%
%LPD*%
%AMOC8*
5,1,8,0,0,1.08239X$1,22.5*
%
%ADD10C,0.0000*%
D10*
X000680Y000680D02*
X000680Y007176D01*
X011113Y007176D01*
X012550Y004680D02*
X012552Y004730D01*
X012558Y004780D01*
X012568Y004829D01*
X012582Y004877D01*
X012599Y004924D01*
X012620Y004969D01*
X012645Y005013D01*
X012673Y005054D01*
X012705Y005093D01*
X012739Y005130D01*
X012776Y005164D01*
X012816Y005194D01*
X012858Y005221D01*
X012902Y005245D01*
X012948Y005266D01*
X012995Y005282D01*
X013043Y005295D01*
X013093Y005304D01*
X013142Y005309D01*
X013193Y005310D01*
X013243Y005307D01*
X013292Y005300D01*
X013341Y005289D01*
X013389Y005274D01*
X013435Y005256D01*
X013480Y005234D01*
X013523Y005208D01*
X013564Y005179D01*
X013603Y005147D01*
X013639Y005112D01*
X013671Y005074D01*
X013701Y005034D01*
X013728Y004991D01*
X013751Y004947D01*
X013770Y004901D01*
X013786Y004853D01*
X013798Y004804D01*
X013806Y004755D01*
X013810Y004705D01*
X013810Y004655D01*
X013806Y004605D01*
X013798Y004556D01*
X013786Y004507D01*
X013770Y004459D01*
X013751Y004413D01*
X013728Y004369D01*
X013701Y004326D01*
X013671Y004286D01*
X013639Y004248D01*
X013603Y004213D01*
X013564Y004181D01*
X013523Y004152D01*
X013480Y004126D01*
X013435Y004104D01*
X013389Y004086D01*
X013341Y004071D01*
X013292Y004060D01*
X013243Y004053D01*
X013193Y004050D01*
X013142Y004051D01*
X013093Y004056D01*
X013043Y004065D01*
X012995Y004078D01*
X012948Y004094D01*
X012902Y004115D01*
X012858Y004139D01*
X012816Y004166D01*
X012776Y004196D01*
X012739Y004230D01*
X012705Y004267D01*
X012673Y004306D01*
X012645Y004347D01*
X012620Y004391D01*
X012599Y004436D01*
X012582Y004483D01*
X012568Y004531D01*
X012558Y004580D01*
X012552Y004630D01*
X012550Y004680D01*
X011113Y007176D02*
X011237Y007174D01*
X011360Y007168D01*
X011484Y007159D01*
X011606Y007145D01*
X011729Y007128D01*
X011851Y007106D01*
X011972Y007081D01*
X012092Y007052D01*
X012211Y007020D01*
X012330Y006983D01*
X012447Y006943D01*
X012562Y006900D01*
X012677Y006852D01*
X012789Y006801D01*
X012900Y006747D01*
X013010Y006689D01*
X013117Y006628D01*
X013223Y006563D01*
X013326Y006495D01*
X013427Y006424D01*
X013526Y006350D01*
X013623Y006273D01*
X013717Y006192D01*
X013808Y006109D01*
X013897Y006023D01*
X013983Y005934D01*
X014066Y005843D01*
X014147Y005749D01*
X014224Y005652D01*
X014298Y005553D01*
X014369Y005452D01*
X014437Y005349D01*
X014502Y005243D01*
X014563Y005136D01*
X014621Y005026D01*
X014675Y004915D01*
X014726Y004803D01*
X014774Y004688D01*
X014817Y004573D01*
X014857Y004456D01*
X014894Y004337D01*
X014926Y004218D01*
X014955Y004098D01*
X014980Y003977D01*
X015002Y003855D01*
X015019Y003732D01*
X015033Y003610D01*
X015042Y003486D01*
X015048Y003363D01*
X015050Y003239D01*
X015050Y000680D01*
X000680Y000680D01*
X001050Y002180D02*
X001052Y002230D01*
X001058Y002280D01*
X001068Y002329D01*
X001082Y002377D01*
X001099Y002424D01*
X001120Y002469D01*
X001145Y002513D01*
X001173Y002554D01*
X001205Y002593D01*
X001239Y002630D01*
X001276Y002664D01*
X001316Y002694D01*
X001358Y002721D01*
X001402Y002745D01*
X001448Y002766D01*
X001495Y002782D01*
X001543Y002795D01*
X001593Y002804D01*
X001642Y002809D01*
X001693Y002810D01*
X001743Y002807D01*
X001792Y002800D01*
X001841Y002789D01*
X001889Y002774D01*
X001935Y002756D01*
X001980Y002734D01*
X002023Y002708D01*
X002064Y002679D01*
X002103Y002647D01*
X002139Y002612D01*
X002171Y002574D01*
X002201Y002534D01*
X002228Y002491D01*
X002251Y002447D01*
X002270Y002401D01*
X002286Y002353D01*
X002298Y002304D01*
X002306Y002255D01*
X002310Y002205D01*
X002310Y002155D01*
X002306Y002105D01*
X002298Y002056D01*
X002286Y002007D01*
X002270Y001959D01*
X002251Y001913D01*
X002228Y001869D01*
X002201Y001826D01*
X002171Y001786D01*
X002139Y001748D01*
X002103Y001713D01*
X002064Y001681D01*
X002023Y001652D01*
X001980Y001626D01*
X001935Y001604D01*
X001889Y001586D01*
X001841Y001571D01*
X001792Y001560D01*
X001743Y001553D01*
X001693Y001550D01*
X001642Y001551D01*
X001593Y001556D01*
X001543Y001565D01*
X001495Y001578D01*
X001448Y001594D01*
X001402Y001615D01*
X001358Y001639D01*
X001316Y001666D01*
X001276Y001696D01*
X001239Y001730D01*
X001205Y001767D01*
X001173Y001806D01*
X001145Y001847D01*
X001120Y001891D01*
X001099Y001936D01*
X001082Y001983D01*
X001068Y002031D01*
X001058Y002080D01*
X001052Y002130D01*
X001050Y002180D01*
X001050Y005680D02*
X001052Y005730D01*
X001058Y005780D01*
X001068Y005829D01*
X001082Y005877D01*
X001099Y005924D01*
X001120Y005969D01*
X001145Y006013D01*
X001173Y006054D01*
X001205Y006093D01*
X001239Y006130D01*
X001276Y006164D01*
X001316Y006194D01*
X001358Y006221D01*
X001402Y006245D01*
X001448Y006266D01*
X001495Y006282D01*
X001543Y006295D01*
X001593Y006304D01*
X001642Y006309D01*
X001693Y006310D01*
X001743Y006307D01*
X001792Y006300D01*
X001841Y006289D01*
X001889Y006274D01*
X001935Y006256D01*
X001980Y006234D01*
X002023Y006208D01*
X002064Y006179D01*
X002103Y006147D01*
X002139Y006112D01*
X002171Y006074D01*
X002201Y006034D01*
X002228Y005991D01*
X002251Y005947D01*
X002270Y005901D01*
X002286Y005853D01*
X002298Y005804D01*
X002306Y005755D01*
X002310Y005705D01*
X002310Y005655D01*
X002306Y005605D01*
X002298Y005556D01*
X002286Y005507D01*
X002270Y005459D01*
X002251Y005413D01*
X002228Y005369D01*
X002201Y005326D01*
X002171Y005286D01*
X002139Y005248D01*
X002103Y005213D01*
X002064Y005181D01*
X002023Y005152D01*
X001980Y005126D01*
X001935Y005104D01*
X001889Y005086D01*
X001841Y005071D01*
X001792Y005060D01*
X001743Y005053D01*
X001693Y005050D01*
X001642Y005051D01*
X001593Y005056D01*
X001543Y005065D01*
X001495Y005078D01*
X001448Y005094D01*
X001402Y005115D01*
X001358Y005139D01*
X001316Y005166D01*
X001276Y005196D01*
X001239Y005230D01*
X001205Y005267D01*
X001173Y005306D01*
X001145Y005347D01*
X001120Y005391D01*
X001099Y005436D01*
X001082Y005483D01*
X001068Y005531D01*
X001058Y005580D01*
X001052Y005630D01*
X001050Y005680D01*
M02*
