G75*
%MOIN*%
%OFA0B0*%
%FSLAX24Y24*%
%IPPOS*%
%LPD*%
%AMOC8*
5,1,8,0,0,1.08239X$1,22.5*
%
%ADD10OC8,0.0630*%
%ADD11C,0.0630*%
%ADD12OC8,0.0480*%
%ADD13C,0.0540*%
%ADD14C,0.0480*%
%ADD15C,0.0591*%
%ADD16OC8,0.0600*%
%ADD17C,0.0160*%
%ADD18C,0.0100*%
%ADD19C,0.0376*%
D10*
X011680Y002680D03*
D11*
X010680Y002680D03*
D12*
X010680Y005180D03*
X011680Y005180D03*
D13*
X004180Y002450D02*
X004180Y001910D01*
X003180Y001910D02*
X003180Y002450D01*
D14*
X005940Y002180D02*
X006420Y002180D01*
X006420Y003180D02*
X005940Y003180D01*
X005940Y004180D02*
X006420Y004180D01*
X006420Y005180D02*
X005940Y005180D01*
X008940Y005180D02*
X009420Y005180D01*
X009420Y004180D02*
X008940Y004180D01*
X008940Y003180D02*
X009420Y003180D01*
X009420Y002180D02*
X008940Y002180D01*
D15*
X004914Y004196D03*
X002946Y004196D03*
X003930Y006164D03*
D16*
X012930Y002680D03*
X013930Y002680D03*
X013930Y001680D03*
X012930Y001680D03*
D17*
X000910Y001792D02*
X000910Y000910D01*
X014820Y000910D01*
X014820Y003239D01*
X014806Y003562D01*
X014694Y004198D01*
X014473Y004806D01*
X014150Y005365D01*
X013734Y005860D01*
X013239Y006276D01*
X012680Y006599D01*
X012073Y006820D01*
X011436Y006932D01*
X011113Y006946D01*
X000910Y006946D01*
X000910Y006068D01*
X000951Y006167D01*
X001193Y006409D01*
X001509Y006540D01*
X001851Y006540D01*
X002167Y006409D01*
X002409Y006167D01*
X002540Y005851D01*
X002540Y005509D01*
X002409Y005193D01*
X002167Y004951D01*
X001851Y004820D01*
X001509Y004820D01*
X001193Y004951D01*
X000951Y005193D01*
X000910Y005292D01*
X000910Y002568D01*
X000951Y002667D01*
X001193Y002909D01*
X001509Y003040D01*
X001851Y003040D01*
X002167Y002909D01*
X002409Y002667D01*
X002540Y002351D01*
X002540Y002009D01*
X002409Y001693D01*
X002167Y001451D01*
X001851Y001320D01*
X001509Y001320D01*
X001193Y001451D01*
X000951Y001693D01*
X000910Y001792D01*
X000910Y001790D02*
X000911Y001790D01*
X000910Y001631D02*
X001013Y001631D01*
X000910Y001473D02*
X001171Y001473D01*
X000910Y001314D02*
X006305Y001314D01*
X006349Y001270D02*
X009611Y001270D01*
X010565Y002224D01*
X010571Y002225D01*
X010577Y002230D01*
X010589Y002225D01*
X010771Y002225D01*
X010822Y002247D01*
X011445Y001545D01*
X011870Y001058D01*
X011870Y001049D01*
X011929Y000990D01*
X011984Y000927D01*
X011993Y000926D01*
X011999Y000920D01*
X012083Y000920D01*
X012166Y000914D01*
X012173Y000920D01*
X013389Y000920D01*
X013397Y000913D01*
X013479Y000920D01*
X013561Y000920D01*
X013568Y000927D01*
X013578Y000928D01*
X013632Y000991D01*
X013690Y001049D01*
X013690Y001059D01*
X013844Y001240D01*
X014112Y001240D01*
X014370Y001498D01*
X014370Y001862D01*
X014112Y002120D01*
X013748Y002120D01*
X013490Y001862D01*
X013490Y001503D01*
X013368Y001360D01*
X013232Y001360D01*
X013370Y001498D01*
X013370Y001862D01*
X013112Y002120D01*
X012748Y002120D01*
X012636Y002008D01*
X012550Y002081D01*
X012550Y002381D01*
X012731Y002200D01*
X012910Y002200D01*
X012910Y002660D01*
X012950Y002660D01*
X012950Y002700D01*
X012910Y002700D01*
X012910Y003160D01*
X012731Y003160D01*
X012550Y002979D01*
X012550Y003478D01*
X012551Y003568D01*
X012550Y003569D01*
X012550Y003571D01*
X012487Y003634D01*
X011060Y005104D01*
X011060Y005337D01*
X010837Y005560D01*
X010523Y005560D01*
X010363Y005400D01*
X009737Y005400D01*
X009635Y005502D01*
X009496Y005560D01*
X008864Y005560D01*
X008725Y005502D01*
X008618Y005395D01*
X008560Y005256D01*
X008560Y005104D01*
X008618Y004965D01*
X008725Y004858D01*
X008864Y004800D01*
X008960Y004800D01*
X008960Y004560D01*
X008864Y004560D01*
X008725Y004502D01*
X008618Y004395D01*
X008560Y004256D01*
X008560Y004104D01*
X008561Y004102D01*
X008020Y003561D01*
X008020Y002569D01*
X008149Y002440D01*
X008599Y001990D01*
X008607Y001990D01*
X008618Y001965D01*
X008725Y001858D01*
X008864Y001800D01*
X009496Y001800D01*
X009535Y001816D01*
X009429Y001710D01*
X006531Y001710D01*
X006480Y001761D01*
X006480Y001800D01*
X006496Y001800D01*
X006635Y001858D01*
X006742Y001965D01*
X006800Y002104D01*
X006800Y002256D01*
X006742Y002395D01*
X006635Y002502D01*
X006496Y002560D01*
X005864Y002560D01*
X005725Y002502D01*
X005623Y002400D01*
X004590Y002400D01*
X004590Y002532D01*
X004528Y002682D01*
X004412Y002798D01*
X004262Y002860D01*
X004098Y002860D01*
X003948Y002798D01*
X003832Y002682D01*
X003770Y002532D01*
X003770Y001828D01*
X003832Y001678D01*
X003948Y001562D01*
X004098Y001500D01*
X004262Y001500D01*
X004412Y001562D01*
X004528Y001678D01*
X004590Y001828D01*
X004590Y001960D01*
X005623Y001960D01*
X005725Y001858D01*
X005864Y001800D01*
X006040Y001800D01*
X006040Y001579D01*
X006220Y001399D01*
X006349Y001270D01*
X006440Y001490D02*
X009520Y001490D01*
X010470Y002440D01*
X010670Y002660D01*
X010670Y002750D02*
X011610Y001690D01*
X012090Y001140D01*
X013470Y001140D01*
X013930Y001680D01*
X014370Y001631D02*
X014820Y001631D01*
X014820Y001473D02*
X014345Y001473D01*
X014186Y001314D02*
X014820Y001314D01*
X014820Y001156D02*
X013772Y001156D01*
X013638Y000997D02*
X014820Y000997D01*
X013464Y001473D02*
X013345Y001473D01*
X013370Y001631D02*
X013490Y001631D01*
X013490Y001790D02*
X013370Y001790D01*
X013284Y001948D02*
X013576Y001948D01*
X013734Y002107D02*
X013126Y002107D01*
X013129Y002200D02*
X012950Y002200D01*
X012950Y002660D01*
X013410Y002660D01*
X013410Y002481D01*
X013129Y002200D01*
X013194Y002265D02*
X013666Y002265D01*
X013731Y002200D02*
X013450Y002481D01*
X013450Y002660D01*
X013910Y002660D01*
X013910Y002700D01*
X013910Y003160D01*
X013731Y003160D01*
X013450Y002879D01*
X013450Y002700D01*
X013910Y002700D01*
X013950Y002700D01*
X013950Y003160D01*
X014129Y003160D01*
X014410Y002879D01*
X014410Y002700D01*
X013950Y002700D01*
X013950Y002660D01*
X014410Y002660D01*
X014410Y002481D01*
X014129Y002200D01*
X013950Y002200D01*
X013950Y002660D01*
X013910Y002660D01*
X013910Y002200D01*
X013731Y002200D01*
X013910Y002265D02*
X013950Y002265D01*
X014194Y002265D02*
X014820Y002265D01*
X014820Y002107D02*
X014126Y002107D01*
X014284Y001948D02*
X014820Y001948D01*
X014820Y001790D02*
X014370Y001790D01*
X014352Y002424D02*
X014820Y002424D01*
X014820Y002582D02*
X014410Y002582D01*
X014410Y002741D02*
X014820Y002741D01*
X014820Y002899D02*
X014390Y002899D01*
X014231Y003058D02*
X014820Y003058D01*
X014820Y003216D02*
X012550Y003216D01*
X012550Y003058D02*
X012629Y003058D01*
X012910Y003058D02*
X012950Y003058D01*
X012950Y003160D02*
X012950Y002700D01*
X013410Y002700D01*
X013410Y002879D01*
X013129Y003160D01*
X012950Y003160D01*
X013231Y003058D02*
X013629Y003058D01*
X013470Y002899D02*
X013390Y002899D01*
X013410Y002741D02*
X013450Y002741D01*
X013450Y002582D02*
X013410Y002582D01*
X013352Y002424D02*
X013508Y002424D01*
X013910Y002424D02*
X013950Y002424D01*
X013950Y002582D02*
X013910Y002582D01*
X013910Y002741D02*
X013950Y002741D01*
X013950Y002899D02*
X013910Y002899D01*
X013910Y003058D02*
X013950Y003058D01*
X014814Y003375D02*
X012550Y003375D01*
X012551Y003533D02*
X014807Y003533D01*
X014783Y003692D02*
X012431Y003692D01*
X012277Y003850D02*
X012937Y003850D01*
X013009Y003820D02*
X013351Y003820D01*
X013667Y003951D01*
X013909Y004193D01*
X014040Y004509D01*
X014040Y004851D01*
X013909Y005167D01*
X013667Y005409D01*
X013351Y005540D01*
X013009Y005540D01*
X012693Y005409D01*
X012451Y005167D01*
X012320Y004851D01*
X012320Y004509D01*
X012451Y004193D01*
X012693Y003951D01*
X013009Y003820D01*
X012635Y004009D02*
X012124Y004009D01*
X011970Y004167D02*
X012477Y004167D01*
X012396Y004326D02*
X011816Y004326D01*
X011662Y004484D02*
X012330Y004484D01*
X012320Y004643D02*
X011508Y004643D01*
X011506Y004760D02*
X011680Y004760D01*
X011854Y004760D01*
X012100Y005006D01*
X012100Y005180D01*
X012100Y005354D01*
X011854Y005600D01*
X011680Y005600D01*
X011680Y005180D01*
X012100Y005180D01*
X011680Y005180D01*
X011680Y005180D01*
X011680Y005180D01*
X011680Y004760D01*
X011680Y005180D01*
X011680Y005180D01*
X011680Y005180D01*
X011260Y005180D01*
X011260Y005354D01*
X011506Y005600D01*
X011680Y005600D01*
X011680Y005180D01*
X011260Y005180D01*
X011260Y005006D01*
X011506Y004760D01*
X011465Y004801D02*
X011354Y004801D01*
X011307Y004960D02*
X011201Y004960D01*
X011260Y005118D02*
X011060Y005118D01*
X011060Y005277D02*
X011260Y005277D01*
X011341Y005435D02*
X010962Y005435D01*
X011500Y005594D02*
X004808Y005594D01*
X004649Y005752D02*
X013825Y005752D01*
X013958Y005594D02*
X011860Y005594D01*
X011680Y005594D02*
X011680Y005594D01*
X011680Y005435D02*
X011680Y005435D01*
X011680Y005277D02*
X011680Y005277D01*
X011680Y005118D02*
X011680Y005118D01*
X011680Y004960D02*
X011680Y004960D01*
X011680Y004801D02*
X011680Y004801D01*
X011895Y004801D02*
X012320Y004801D01*
X012365Y004960D02*
X012053Y004960D01*
X012100Y005118D02*
X012431Y005118D01*
X012560Y005277D02*
X012100Y005277D01*
X012019Y005435D02*
X012756Y005435D01*
X013604Y005435D02*
X014091Y005435D01*
X014201Y005277D02*
X013800Y005277D01*
X013929Y005118D02*
X014292Y005118D01*
X014384Y004960D02*
X013995Y004960D01*
X014040Y004801D02*
X014474Y004801D01*
X014532Y004643D02*
X014040Y004643D01*
X014030Y004484D02*
X014590Y004484D01*
X014648Y004326D02*
X013964Y004326D01*
X013883Y004167D02*
X014699Y004167D01*
X014727Y004009D02*
X013725Y004009D01*
X013423Y003850D02*
X014755Y003850D01*
X012950Y002899D02*
X012910Y002899D01*
X012910Y002741D02*
X012950Y002741D01*
X012950Y002582D02*
X012910Y002582D01*
X012910Y002424D02*
X012950Y002424D01*
X012950Y002265D02*
X012910Y002265D01*
X012734Y002107D02*
X012550Y002107D01*
X012330Y001980D02*
X012680Y001680D01*
X012930Y001680D01*
X012628Y001360D02*
X012490Y001498D01*
X012490Y001553D01*
X012249Y001760D01*
X012239Y001760D01*
X012180Y001818D01*
X012118Y001872D01*
X012117Y001882D01*
X012110Y001889D01*
X012110Y001972D01*
X012104Y002054D01*
X012110Y002061D01*
X012110Y002410D01*
X011885Y002185D01*
X011680Y002185D01*
X011680Y002680D01*
X011680Y002680D01*
X011680Y003175D01*
X011885Y003175D01*
X012110Y002950D01*
X012110Y003391D01*
X010742Y004800D01*
X010523Y004800D01*
X010363Y004960D01*
X009737Y004960D01*
X009635Y004858D01*
X009496Y004800D01*
X009400Y004800D01*
X009400Y004560D01*
X009496Y004560D01*
X009635Y004502D01*
X009742Y004395D01*
X009800Y004256D01*
X009800Y004104D01*
X009742Y003965D01*
X009635Y003858D01*
X009496Y003800D01*
X008881Y003800D01*
X008460Y003379D01*
X008460Y002751D01*
X008717Y002494D01*
X008725Y002502D01*
X008864Y002560D01*
X009496Y002560D01*
X009635Y002502D01*
X009742Y002395D01*
X009800Y002256D01*
X009800Y002104D01*
X009784Y002065D01*
X010249Y002531D01*
X010225Y002589D01*
X010225Y002771D01*
X010294Y002938D01*
X010422Y003066D01*
X010589Y003135D01*
X010771Y003135D01*
X010938Y003066D01*
X011066Y002938D01*
X011135Y002771D01*
X011135Y002589D01*
X011126Y002567D01*
X011185Y002501D01*
X011185Y002680D01*
X011680Y002680D01*
X011680Y002680D01*
X011680Y002680D01*
X011680Y003175D01*
X011475Y003175D01*
X011185Y002885D01*
X011185Y002680D01*
X011680Y002680D01*
X011680Y002185D01*
X011475Y002185D01*
X011388Y002272D01*
X011715Y001903D01*
X011716Y001903D01*
X011775Y001835D01*
X011835Y001768D01*
X011835Y001767D01*
X012190Y001360D01*
X012628Y001360D01*
X012515Y001473D02*
X012092Y001473D01*
X011953Y001631D02*
X012399Y001631D01*
X012209Y001790D02*
X011816Y001790D01*
X011675Y001948D02*
X012110Y001948D01*
X012110Y002107D02*
X011535Y002107D01*
X011394Y002265D02*
X011395Y002265D01*
X011680Y002265D02*
X011680Y002265D01*
X011965Y002265D02*
X012110Y002265D01*
X011680Y002424D02*
X011680Y002424D01*
X011680Y002582D02*
X011680Y002582D01*
X011680Y002741D02*
X011680Y002741D01*
X011680Y002899D02*
X011680Y002899D01*
X011680Y003058D02*
X011680Y003058D01*
X012003Y003058D02*
X012110Y003058D01*
X012110Y003216D02*
X009840Y003216D01*
X009840Y003213D02*
X009830Y003278D01*
X009809Y003341D01*
X009779Y003400D01*
X009740Y003454D01*
X009694Y003500D01*
X009640Y003539D01*
X009581Y003569D01*
X009518Y003590D01*
X009453Y003600D01*
X009180Y003600D01*
X009180Y003180D01*
X009180Y003180D01*
X009840Y003180D01*
X009840Y003213D01*
X009840Y003180D02*
X009180Y003180D01*
X009180Y003180D01*
X009180Y002760D01*
X009453Y002760D01*
X009518Y002770D01*
X009581Y002791D01*
X009640Y002821D01*
X009694Y002860D01*
X009740Y002906D01*
X009779Y002960D01*
X009809Y003019D01*
X009830Y003082D01*
X009840Y003147D01*
X009840Y003180D01*
X009822Y003058D02*
X010414Y003058D01*
X010278Y002899D02*
X009733Y002899D01*
X010225Y002741D02*
X008471Y002741D01*
X008240Y002660D02*
X008240Y003470D01*
X008870Y004100D01*
X009100Y004100D01*
X009180Y004180D01*
X009180Y005180D01*
X010680Y005180D01*
X012330Y003480D01*
X012330Y001980D01*
X012550Y002265D02*
X012666Y002265D01*
X011368Y001631D02*
X009972Y001631D01*
X009814Y001473D02*
X011508Y001473D01*
X011646Y001314D02*
X009655Y001314D01*
X009508Y001790D02*
X006480Y001790D01*
X006260Y001670D02*
X006440Y001490D01*
X006146Y001473D02*
X002189Y001473D01*
X002347Y001631D02*
X002879Y001631D01*
X002832Y001678D02*
X002948Y001562D01*
X003098Y001500D01*
X003262Y001500D01*
X003412Y001562D01*
X003528Y001678D01*
X003590Y001828D01*
X003590Y002532D01*
X003528Y002682D01*
X003412Y002798D01*
X003400Y002803D01*
X003400Y003674D01*
X003418Y003725D01*
X003400Y003762D01*
X003400Y003803D01*
X003362Y003841D01*
X003311Y003946D01*
X003315Y003949D01*
X003381Y004109D01*
X003381Y004282D01*
X003315Y004442D01*
X003192Y004565D01*
X003032Y004631D01*
X002859Y004631D01*
X002699Y004565D01*
X002577Y004442D01*
X002510Y004282D01*
X002510Y004109D01*
X002577Y003949D01*
X002699Y003827D01*
X002859Y003760D01*
X002912Y003760D01*
X002960Y003661D01*
X002960Y002803D01*
X002948Y002798D01*
X002832Y002682D01*
X002770Y002532D01*
X002770Y001828D01*
X002832Y001678D01*
X002786Y001790D02*
X002449Y001790D01*
X002515Y001948D02*
X002770Y001948D01*
X002770Y002107D02*
X002540Y002107D01*
X002540Y002265D02*
X002770Y002265D01*
X002770Y002424D02*
X002510Y002424D01*
X002444Y002582D02*
X002791Y002582D01*
X002891Y002741D02*
X002336Y002741D01*
X002177Y002899D02*
X002960Y002899D01*
X002960Y003058D02*
X000910Y003058D01*
X000910Y003216D02*
X002960Y003216D01*
X002960Y003375D02*
X000910Y003375D01*
X000910Y003533D02*
X002960Y003533D01*
X002945Y003692D02*
X000910Y003692D01*
X000910Y003850D02*
X002676Y003850D01*
X002552Y004009D02*
X000910Y004009D01*
X000910Y004167D02*
X002510Y004167D01*
X002528Y004326D02*
X000910Y004326D01*
X000910Y004484D02*
X002618Y004484D01*
X003273Y004484D02*
X004536Y004484D01*
X004552Y004505D02*
X004508Y004445D01*
X004474Y004378D01*
X004451Y004307D01*
X004439Y004233D01*
X004439Y004214D01*
X004896Y004214D01*
X004896Y004177D01*
X004933Y004177D01*
X004933Y004214D01*
X005390Y004214D01*
X005390Y004233D01*
X005378Y004307D01*
X005355Y004378D01*
X005321Y004445D01*
X005285Y004493D01*
X005560Y004219D01*
X005560Y004104D01*
X005618Y003965D01*
X005725Y003858D01*
X005864Y003800D01*
X006496Y003800D01*
X006635Y003858D01*
X006742Y003965D01*
X006800Y004104D01*
X006800Y004256D01*
X006742Y004395D01*
X006635Y004502D01*
X006496Y004560D01*
X005864Y004560D01*
X005848Y004553D01*
X004353Y006048D01*
X004365Y006078D01*
X004365Y006251D01*
X004299Y006411D01*
X004177Y006533D01*
X004017Y006600D01*
X003843Y006600D01*
X003683Y006533D01*
X003561Y006411D01*
X003495Y006251D01*
X003495Y006078D01*
X003561Y005918D01*
X003683Y005795D01*
X003843Y005729D01*
X004017Y005729D01*
X004040Y005739D01*
X005212Y004567D01*
X005163Y004602D01*
X005097Y004636D01*
X005026Y004659D01*
X004952Y004671D01*
X004933Y004671D01*
X004933Y004214D01*
X004896Y004214D01*
X004896Y004671D01*
X004877Y004671D01*
X004803Y004659D01*
X004732Y004636D01*
X004665Y004602D01*
X004605Y004558D01*
X004552Y004505D01*
X004457Y004326D02*
X003363Y004326D01*
X003381Y004167D02*
X004439Y004167D01*
X004439Y004158D02*
X004439Y004177D01*
X004896Y004177D01*
X004896Y003720D01*
X004877Y003720D01*
X004803Y003732D01*
X004732Y003755D01*
X004665Y003789D01*
X004605Y003833D01*
X004552Y003886D01*
X004508Y003947D01*
X004474Y004013D01*
X004451Y004084D01*
X004439Y004158D01*
X004476Y004009D02*
X003339Y004009D01*
X003357Y003850D02*
X004588Y003850D01*
X004896Y003850D02*
X004933Y003850D01*
X004933Y003720D02*
X004952Y003720D01*
X005026Y003732D01*
X005097Y003755D01*
X005163Y003789D01*
X005224Y003833D01*
X005277Y003886D01*
X005321Y003947D01*
X005355Y004013D01*
X005378Y004084D01*
X005390Y004158D01*
X005390Y004177D01*
X004933Y004177D01*
X004933Y003720D01*
X005241Y003850D02*
X005744Y003850D01*
X005600Y004009D02*
X005352Y004009D01*
X005390Y004167D02*
X005560Y004167D01*
X005900Y004190D02*
X003920Y006170D01*
X003930Y006164D02*
X003740Y006170D01*
X003495Y006228D02*
X002349Y006228D01*
X002450Y006069D02*
X003498Y006069D01*
X003568Y005911D02*
X002515Y005911D01*
X002540Y005752D02*
X003788Y005752D01*
X004185Y005594D02*
X002540Y005594D01*
X002509Y005435D02*
X004344Y005435D01*
X004502Y005277D02*
X002444Y005277D01*
X002334Y005118D02*
X004661Y005118D01*
X004819Y004960D02*
X002176Y004960D01*
X001184Y004960D02*
X000910Y004960D01*
X000910Y005118D02*
X001026Y005118D01*
X000916Y005277D02*
X000910Y005277D01*
X000910Y004801D02*
X004978Y004801D01*
X004933Y004643D02*
X004896Y004643D01*
X004751Y004643D02*
X000910Y004643D01*
X002946Y004196D02*
X003180Y003711D01*
X003180Y002180D01*
X003590Y002107D02*
X003770Y002107D01*
X003770Y002265D02*
X003590Y002265D01*
X003590Y002424D02*
X003770Y002424D01*
X003791Y002582D02*
X003569Y002582D01*
X003469Y002741D02*
X003891Y002741D01*
X003400Y002899D02*
X005627Y002899D01*
X005620Y002906D02*
X005666Y002860D01*
X005720Y002821D01*
X005779Y002791D01*
X005842Y002770D01*
X005907Y002760D01*
X006180Y002760D01*
X006453Y002760D01*
X006518Y002770D01*
X006581Y002791D01*
X006640Y002821D01*
X006694Y002860D01*
X006740Y002906D01*
X006779Y002960D01*
X006809Y003019D01*
X006830Y003082D01*
X006840Y003147D01*
X006840Y003180D01*
X006840Y003213D01*
X006830Y003278D01*
X006809Y003341D01*
X006779Y003400D01*
X006740Y003454D01*
X006694Y003500D01*
X006640Y003539D01*
X006581Y003569D01*
X006518Y003590D01*
X006453Y003600D01*
X006180Y003600D01*
X006180Y003180D01*
X006180Y003180D01*
X006840Y003180D01*
X006180Y003180D01*
X006180Y003180D01*
X006180Y002760D01*
X006180Y003180D01*
X006180Y003180D01*
X006180Y003180D01*
X005520Y003180D01*
X005520Y003213D01*
X005530Y003278D01*
X005551Y003341D01*
X005581Y003400D01*
X005620Y003454D01*
X005666Y003500D01*
X005720Y003539D01*
X005779Y003569D01*
X005842Y003590D01*
X005907Y003600D01*
X006180Y003600D01*
X006180Y003180D01*
X005520Y003180D01*
X005520Y003147D01*
X005530Y003082D01*
X005551Y003019D01*
X005581Y002960D01*
X005620Y002906D01*
X005538Y003058D02*
X003400Y003058D01*
X003400Y003216D02*
X005520Y003216D01*
X005568Y003375D02*
X003400Y003375D01*
X003400Y003533D02*
X005711Y003533D01*
X006180Y003533D02*
X006180Y003533D01*
X006180Y003375D02*
X006180Y003375D01*
X006180Y003216D02*
X006180Y003216D01*
X006180Y003058D02*
X006180Y003058D01*
X006180Y002899D02*
X006180Y002899D01*
X006733Y002899D02*
X008020Y002899D01*
X008020Y002741D02*
X004469Y002741D01*
X004569Y002582D02*
X008020Y002582D01*
X008240Y002660D02*
X008690Y002210D01*
X009140Y002210D01*
X009714Y002424D02*
X010142Y002424D01*
X010228Y002582D02*
X008629Y002582D01*
X008165Y002424D02*
X006714Y002424D01*
X006796Y002265D02*
X008324Y002265D01*
X008482Y002107D02*
X006800Y002107D01*
X006725Y001948D02*
X008635Y001948D01*
X009800Y002107D02*
X009825Y002107D01*
X009796Y002265D02*
X009984Y002265D01*
X010448Y002107D02*
X010947Y002107D01*
X011087Y001948D02*
X010289Y001948D01*
X010131Y001790D02*
X011228Y001790D01*
X011784Y001156D02*
X000910Y001156D01*
X000910Y000997D02*
X011922Y000997D01*
X011185Y002582D02*
X011132Y002582D01*
X011135Y002741D02*
X011185Y002741D01*
X011199Y002899D02*
X011082Y002899D01*
X010946Y003058D02*
X011357Y003058D01*
X012110Y003375D02*
X009792Y003375D01*
X009649Y003533D02*
X011972Y003533D01*
X011818Y003692D02*
X008773Y003692D01*
X008779Y003569D02*
X008720Y003539D01*
X008666Y003500D01*
X008620Y003454D01*
X008581Y003400D01*
X008551Y003341D01*
X008530Y003278D01*
X008520Y003213D01*
X008520Y003180D01*
X009180Y003180D01*
X009180Y003180D01*
X009180Y003180D01*
X009180Y003600D01*
X008907Y003600D01*
X008842Y003590D01*
X008779Y003569D01*
X008711Y003533D02*
X008614Y003533D01*
X008568Y003375D02*
X008460Y003375D01*
X008460Y003216D02*
X008520Y003216D01*
X008520Y003180D02*
X008520Y003147D01*
X008530Y003082D01*
X008551Y003019D01*
X008581Y002960D01*
X008620Y002906D01*
X008666Y002860D01*
X008720Y002821D01*
X008779Y002791D01*
X008842Y002770D01*
X008907Y002760D01*
X009180Y002760D01*
X009180Y003180D01*
X008520Y003180D01*
X008538Y003058D02*
X008460Y003058D01*
X008460Y002899D02*
X008627Y002899D01*
X009180Y002899D02*
X009180Y002899D01*
X009180Y003058D02*
X009180Y003058D01*
X009180Y003216D02*
X009180Y003216D01*
X009180Y003375D02*
X009180Y003375D01*
X009180Y003533D02*
X009180Y003533D01*
X009616Y003850D02*
X011664Y003850D01*
X011510Y004009D02*
X009760Y004009D01*
X009800Y004167D02*
X011357Y004167D01*
X011203Y004326D02*
X009771Y004326D01*
X009653Y004484D02*
X011049Y004484D01*
X010895Y004643D02*
X009400Y004643D01*
X009498Y004801D02*
X010522Y004801D01*
X010363Y004960D02*
X009737Y004960D01*
X008960Y004643D02*
X005759Y004643D01*
X005862Y004801D02*
X005600Y004801D01*
X005725Y004858D02*
X005864Y004800D01*
X006496Y004800D01*
X006635Y004858D01*
X006742Y004965D01*
X006800Y005104D01*
X006800Y005256D01*
X006742Y005395D01*
X006635Y005502D01*
X006496Y005560D01*
X005864Y005560D01*
X005725Y005502D01*
X005618Y005395D01*
X005560Y005256D01*
X005560Y005104D01*
X005618Y004965D01*
X005725Y004858D01*
X005623Y004960D02*
X005442Y004960D01*
X005560Y005118D02*
X005283Y005118D01*
X005125Y005277D02*
X005569Y005277D01*
X005658Y005435D02*
X004966Y005435D01*
X004491Y005911D02*
X013674Y005911D01*
X013486Y006069D02*
X004362Y006069D01*
X004365Y006228D02*
X013297Y006228D01*
X013048Y006386D02*
X004309Y006386D01*
X004149Y006545D02*
X012774Y006545D01*
X012393Y006703D02*
X000910Y006703D01*
X000910Y006545D02*
X003711Y006545D01*
X003551Y006386D02*
X002190Y006386D01*
X001170Y006386D02*
X000910Y006386D01*
X000910Y006228D02*
X001011Y006228D01*
X000910Y006069D02*
X000910Y006069D01*
X000910Y006862D02*
X011836Y006862D01*
X010398Y005435D02*
X009702Y005435D01*
X008658Y005435D02*
X006702Y005435D01*
X006791Y005277D02*
X008569Y005277D01*
X008560Y005118D02*
X006800Y005118D01*
X006737Y004960D02*
X008623Y004960D01*
X008862Y004801D02*
X006498Y004801D01*
X006653Y004484D02*
X008707Y004484D01*
X008589Y004326D02*
X006771Y004326D01*
X006800Y004167D02*
X008560Y004167D01*
X008467Y004009D02*
X006760Y004009D01*
X006616Y003850D02*
X008309Y003850D01*
X008150Y003692D02*
X003406Y003692D01*
X004896Y004009D02*
X004933Y004009D01*
X004933Y004167D02*
X004896Y004167D01*
X004896Y004326D02*
X004933Y004326D01*
X004933Y004484D02*
X004896Y004484D01*
X005077Y004643D02*
X005136Y004643D01*
X005292Y004484D02*
X005295Y004484D01*
X005372Y004326D02*
X005453Y004326D01*
X005900Y004190D02*
X006170Y004190D01*
X006649Y003533D02*
X008020Y003533D01*
X008020Y003375D02*
X006792Y003375D01*
X006840Y003216D02*
X008020Y003216D01*
X008020Y003058D02*
X006822Y003058D01*
X005646Y002424D02*
X004590Y002424D01*
X004180Y002180D02*
X006180Y002180D01*
X006260Y002120D02*
X006260Y001670D01*
X006040Y001631D02*
X004481Y001631D01*
X004574Y001790D02*
X006040Y001790D01*
X005635Y001948D02*
X004590Y001948D01*
X003879Y001631D02*
X003481Y001631D01*
X003574Y001790D02*
X003786Y001790D01*
X003770Y001948D02*
X003590Y001948D01*
X001183Y002899D02*
X000910Y002899D01*
X000910Y002741D02*
X001024Y002741D01*
X000916Y002582D02*
X000910Y002582D01*
D18*
X006180Y002180D02*
X006260Y002120D01*
X009140Y002210D02*
X009180Y002180D01*
X010670Y002660D02*
X010680Y002680D01*
X010670Y002750D01*
X006180Y004180D02*
X006170Y004190D01*
X003920Y006170D02*
X003740Y006170D01*
D19*
X001680Y003680D03*
X010180Y004180D03*
X012680Y005680D03*
M02*
